<svg width="1440" height="300" viewBox="0 0 1440 300" fill="none" xmlns="http://www.w3.org/2000/svg">
<rect width="1440" height="300" fill="white"/>
<rect width="1396" height="116" transform="translate(10 10)" fill="white"/>
<path d="M37.184 44.632H91.136V89.944H83.264V51.16H37.184V44.632Z" fill="black"/>
<path d="M136.664 82.648H191.672V89.176H136.664V82.648ZM136.664 44.632H144.632V85.144H136.664V44.632Z" fill="black"/>
<path d="M235.856 44.152H288.848V50.68H243.824V85.624H235.856V44.152ZM235.856 83.32H289.712V89.752H235.856V83.32Z" fill="black"/>
<path d="M333.896 43.192H388.232V69.784H341.672V87.544H334.088V63.448H380.648V49.624H333.896V43.192ZM334.088 83.896H389.768V90.52H334.088V83.896Z" fill="black"/>
<path d="M456.896 45.016H463.424V55.576C463.424 60.12 462.72 64.28 461.312 68.056C459.968 71.768 458.048 75.096 455.552 78.04C453.056 80.984 450.112 83.512 446.72 85.624C443.328 87.672 439.584 89.304 435.488 90.52L431.648 84.28C435.36 83.32 438.752 81.976 441.824 80.248C444.896 78.456 447.552 76.344 449.792 73.912C452.096 71.416 453.856 68.632 455.072 65.56C456.288 62.488 456.896 59.16 456.896 55.576V45.016ZM458.336 45.016H464.864V55.576C464.864 59.16 465.472 62.488 466.688 65.56C467.968 68.632 469.728 71.416 471.968 73.912C474.208 76.344 476.864 78.456 479.936 80.248C483.008 81.976 486.4 83.32 490.112 84.28L486.272 90.52C482.176 89.304 478.432 87.672 475.04 85.624C471.648 83.512 468.704 80.984 466.208 78.04C463.712 75.096 461.76 71.768 460.352 68.056C459.008 64.28 458.336 60.12 458.336 55.576V45.016ZM434.144 43.288H487.808V49.816H434.144V43.288Z" fill="black"/>
<path d="M532.472 44.248H586.712V89.656H532.472V44.248ZM578.744 50.776H540.44V83.128H578.744V50.776Z" fill="black"/>
<path d="M658.16 42.808C662 42.808 665.552 43.416 668.816 44.632C672.08 45.784 674.96 47.448 677.456 49.624C679.952 51.736 681.872 54.232 683.216 57.112C684.624 59.992 685.328 63.192 685.328 66.712C685.328 70.168 684.624 73.368 683.216 76.312C681.872 79.256 679.952 81.816 677.456 83.992C674.96 86.104 672.08 87.736 668.816 88.888C665.552 90.04 662 90.616 658.16 90.616C654.384 90.616 650.864 90.04 647.6 88.888C644.336 87.736 641.456 86.104 638.96 83.992C636.464 81.816 634.512 79.256 633.104 76.312C631.76 73.368 631.088 70.168 631.088 66.712C631.088 63.192 631.76 59.992 633.104 57.112C634.512 54.232 636.464 51.736 638.96 49.624C641.456 47.448 644.336 45.784 647.6 44.632C650.864 43.416 654.384 42.808 658.16 42.808ZM658.16 49.72C654.576 49.72 651.312 50.456 648.368 51.928C645.424 53.4 643.088 55.416 641.36 57.976C639.632 60.536 638.768 63.448 638.768 66.712C638.768 69.976 639.632 72.92 641.36 75.544C643.088 78.104 645.424 80.152 648.368 81.688C651.312 83.16 654.576 83.896 658.16 83.896C661.872 83.896 665.168 83.16 668.048 81.688C670.928 80.152 673.232 78.104 674.96 75.544C676.688 72.92 677.552 69.976 677.552 66.712C677.552 63.448 676.688 60.536 674.96 57.976C673.232 55.416 670.928 53.4 668.048 51.928C665.168 50.456 661.872 49.72 658.16 49.72Z" fill="black"/>
<path d="M753.704 42.52H760.52V56.536C760.52 61.08 759.784 65.24 758.312 69.016C756.84 72.792 754.728 76.12 751.976 79C749.288 81.816 746.12 84.248 742.472 86.296C738.888 88.344 734.984 89.912 730.76 91L726.92 84.568C730.76 83.672 734.28 82.392 737.48 80.728C740.744 79 743.592 76.952 746.024 74.584C748.456 72.216 750.344 69.528 751.688 66.52C753.032 63.448 753.704 60.12 753.704 56.536V42.52ZM754.76 42.52H761.576V56.536C761.576 60.12 762.248 63.448 763.592 66.52C764.936 69.528 766.824 72.216 769.256 74.584C771.688 76.952 774.504 79 777.704 80.728C780.968 82.392 784.52 83.672 788.36 84.568L784.52 91C780.296 89.912 776.36 88.344 772.712 86.296C769.128 84.248 765.992 81.816 763.304 79C760.616 76.12 758.504 72.792 756.968 69.016C755.496 65.24 754.76 61.08 754.76 56.536V42.52Z" fill="black"/>
<path d="M829.664 43.192H837.44V59.128H875.456V43.192H883.424V90.04H829.664V43.192ZM837.44 66.136V83.032H875.456V66.136H837.44Z" fill="black"/>
<path d="M950.648 56.92H957.464V60.376C957.464 64.6 956.792 68.472 955.448 71.992C954.104 75.448 952.184 78.52 949.688 81.208C947.192 83.896 944.248 86.2 940.856 88.12C937.528 90.04 933.848 91.512 929.816 92.536L925.976 86.296C929.688 85.4 933.048 84.184 936.056 82.648C939.064 81.048 941.656 79.128 943.832 76.888C946.008 74.648 947.672 72.152 948.824 69.4C950.04 66.648 950.648 63.64 950.648 60.376V56.92ZM953.144 56.92H959.96V60.376C959.96 63.64 960.536 66.648 961.688 69.4C962.904 72.152 964.6 74.648 966.776 76.888C969.016 79.128 971.64 81.048 974.648 82.648C977.656 84.184 980.984 85.4 984.632 86.296L980.888 92.536C976.856 91.512 973.144 90.04 969.752 88.12C966.36 86.2 963.416 83.896 960.92 81.208C958.488 78.52 956.568 75.448 955.16 71.992C953.816 68.472 953.144 64.6 953.144 60.376V56.92ZM928.376 51.256H982.328V57.88H928.376V51.256ZM951.416 38.68H959.384V54.52H951.416V38.68Z" fill="black"/>
<path d="M1028.24 43.096H1081.71V90.712H1073.65V49.624H1028.24V43.096ZM1076.34 63.832V70.168L1027.38 73.336L1026.32 66.136L1076.34 63.832Z" fill="black"/>
<path d="M1126.76 43.96H1180.62V50.488H1134.63V86.776H1126.76V43.96ZM1126.76 83.416H1181.38V89.944H1126.76V83.416ZM1128.58 63.256H1179.94V69.784H1128.58V63.256Z" fill="black"/>
<path d="M1224.61 44.152H1280.58V50.68H1224.61V44.152ZM1223.36 83.896H1281.92V90.424H1223.36V83.896ZM1235.84 49.336H1243.81V86.488H1235.84V49.336ZM1261.47 49.336H1269.44V86.488H1261.47V49.336Z" fill="black"/>
<path d="M1322.84 49.72H1380.44V56.344H1322.84V49.72ZM1351.64 62.488C1355.8 62.488 1359.48 63.192 1362.68 64.6C1365.88 65.944 1368.41 67.8 1370.26 70.168C1372.12 72.536 1373.05 75.256 1373.05 78.328C1373.05 81.464 1372.12 84.248 1370.26 86.68C1368.41 89.048 1365.88 90.904 1362.68 92.248C1359.48 93.592 1355.8 94.264 1351.64 94.264C1347.61 94.264 1343.96 93.592 1340.7 92.248C1337.5 90.904 1334.97 89.048 1333.11 86.68C1331.26 84.248 1330.33 81.464 1330.33 78.328C1330.33 75.256 1331.26 72.536 1333.11 70.168C1334.97 67.8 1337.5 65.944 1340.7 64.6C1343.96 63.192 1347.61 62.488 1351.64 62.488ZM1351.74 69.208C1349.18 69.208 1346.9 69.592 1344.92 70.36C1342.94 71.128 1341.37 72.216 1340.22 73.624C1339.06 74.968 1338.49 76.536 1338.49 78.328C1338.49 80.12 1339.06 81.72 1340.22 83.128C1341.37 84.472 1342.94 85.56 1344.92 86.392C1346.9 87.16 1349.18 87.544 1351.74 87.544C1354.23 87.544 1356.47 87.16 1358.46 86.392C1360.44 85.56 1362.01 84.472 1363.16 83.128C1364.31 81.72 1364.89 80.12 1364.89 78.328C1364.89 76.536 1364.31 74.968 1363.16 73.624C1362.01 72.216 1360.44 71.128 1358.46 70.36C1356.47 69.592 1354.23 69.208 1351.74 69.208ZM1347.7 38.104H1355.67V55.192H1347.7V38.104Z" fill="black"/>
<rect width="1396" height="116" transform="translate(10 126)" fill="white"/>
<path d="M255.632 141.144H263.504V226.392H255.632V141.144ZM261.488 175.896H283.664V182.52H261.488V175.896Z" fill="black"/>
<path d="M357.512 166.008H379.496V172.632H357.512V166.008ZM357.512 189.624H379.496V196.344H357.512V189.624ZM351.944 140.952H359.912V226.2H351.944V140.952Z" fill="black"/>
<path d="M464.864 141.048H472.832V226.296H464.864V141.048ZM444.512 175.32H466.976V182.04H444.512V175.32Z" fill="black"/>
<path d="M564.056 141.048H572.024V226.296H564.056V141.048ZM543.608 164.664H566.168V171.288H543.608V164.664ZM543.608 187.512H566.168V194.232H543.608V187.512Z" fill="black"/>
<path d="M618.992 193.752H697.136V200.28H618.992V193.752ZM654.032 157.56H661.904V195.96H654.032V157.56Z" fill="black"/>
<path d="M718.664 195.96H796.712V202.584H718.664V195.96ZM738.728 157.848H746.6V198.648H738.728V157.848ZM768.872 157.848H776.744V198.456H768.872V157.848Z" fill="black"/>
<path d="M817.568 169.176H895.712V175.704H817.568V169.176ZM852.608 173.304H860.576V212.952H852.608V173.304Z" fill="black"/>
<path d="M915.992 168.984H994.136V175.512H915.992V168.984ZM936.632 173.496H944.6V212.856H936.632V173.496ZM965.144 173.496H973.112V212.856H965.144V173.496Z" fill="black"/>
<path d="M1014.99 178.296H1093.14V184.92H1014.99V178.296Z" fill="black"/>
<path d="M1149.61 141.048H1157.58V226.296H1149.61V141.048Z" fill="black"/>
</svg>
