<svg width="800" height="300" viewBox="0 0 800 300" fill="none" xmlns="http://www.w3.org/2000/svg">
<rect width="800" height="300" fill="white"/>
<path d="M97.632 35.144H105.504V120.392H97.632V35.144ZM103.488 69.896H125.664V76.52H103.488V69.896Z" fill="black"/>
<path d="M141.707 62.7071C142.098 62.3166 142.098 61.6834 141.707 61.2929L135.343 54.9289C134.953 54.5384 134.319 54.5384 133.929 54.9289C133.538 55.3195 133.538 55.9526 133.929 56.3431L139.586 62L133.929 67.6569C133.538 68.0474 133.538 68.6805 133.929 69.0711C134.319 69.4616 134.953 69.4616 135.343 69.0711L141.707 62.7071ZM111 63H141V61H111V63Z" fill="#24870C"/>
<path d="M85.2929 107.707C85.6834 108.098 86.3166 108.098 86.7071 107.707L93.0711 101.343C93.4616 100.953 93.4616 100.319 93.0711 99.9289C92.6805 99.5384 92.0474 99.5384 91.6569 99.9289L86 105.586L80.3431 99.9289C79.9526 99.5384 79.3195 99.5384 78.9289 99.9289C78.5384 100.319 78.5384 100.953 78.9289 101.343L85.2929 107.707ZM85 47V107H87V47H85Z" fill="#24870C"/>
<path d="M138.979 47V46.169L142.099 42.7528C142.466 42.3527 142.767 42.005 143.004 41.7095C143.241 41.411 143.417 41.1309 143.531 40.8693C143.647 40.6046 143.706 40.3277 143.706 40.0384C143.706 39.706 143.626 39.4182 143.466 39.1751C143.309 38.9319 143.094 38.7442 142.82 38.6119C142.546 38.4795 142.238 38.4134 141.896 38.4134C141.533 38.4134 141.216 38.4888 140.945 38.6396C140.678 38.7873 140.47 38.995 140.322 39.2628C140.177 39.5305 140.105 39.8445 140.105 40.2045H139.016C139.016 39.6506 139.143 39.1643 139.399 38.7457C139.654 38.3272 140.002 38.0009 140.442 37.767C140.885 37.5331 141.382 37.4162 141.933 37.4162C142.487 37.4162 142.978 37.5331 143.406 37.767C143.834 38.0009 144.169 38.3164 144.412 38.7134C144.655 39.1104 144.777 39.5521 144.777 40.0384C144.777 40.3861 144.714 40.7262 144.588 41.0586C144.465 41.3879 144.249 41.7557 143.941 42.1619C143.637 42.5651 143.214 43.0575 142.672 43.6392L140.548 45.9105V45.9844H144.943V47H138.979Z" fill="black"/>
<path d="M87.3026 26.5455V36H86.1577V27.7457H86.1023L83.794 29.2784V28.1151L86.1577 26.5455H87.3026Z" fill="black"/>
<path d="M247.864 36.048H255.832V121.296H247.864V36.048ZM227.512 70.32H249.976V77.04H227.512V70.32Z" fill="black"/>
<path d="M243.707 60.7071C244.098 60.3166 244.098 59.6834 243.707 59.2929L237.343 52.9289C236.953 52.5384 236.319 52.5384 235.929 52.9289C235.538 53.3195 235.538 53.9526 235.929 54.3431L241.586 60L235.929 65.6569C235.538 66.0474 235.538 66.6805 235.929 67.0711C236.319 67.4616 236.953 67.4616 237.343 67.0711L243.707 60.7071ZM213 61H243V59H213V61Z" fill="#24870C"/>
<path d="M264.293 107.707C264.683 108.098 265.317 108.098 265.707 107.707L272.071 101.343C272.462 100.953 272.462 100.319 272.071 99.9289C271.681 99.5384 271.047 99.5384 270.657 99.9289L265 105.586L259.343 99.9289C258.953 99.5384 258.319 99.5384 257.929 99.9289C257.538 100.319 257.538 100.953 257.929 101.343L264.293 107.707ZM264 47V107H266V47H264Z" fill="#24870C"/>
<path d="M213.979 44V43.169L217.099 39.7528C217.466 39.3527 217.767 39.005 218.004 38.7095C218.241 38.411 218.417 38.1309 218.531 37.8693C218.647 37.6046 218.706 37.3277 218.706 37.0384C218.706 36.706 218.626 36.4182 218.466 36.1751C218.309 35.9319 218.094 35.7442 217.82 35.6119C217.546 35.4795 217.238 35.4134 216.896 35.4134C216.533 35.4134 216.216 35.4888 215.945 35.6396C215.678 35.7873 215.47 35.995 215.322 36.2628C215.177 36.5305 215.105 36.8445 215.105 37.2045H214.016C214.016 36.6506 214.143 36.1643 214.399 35.7457C214.654 35.3272 215.002 35.0009 215.442 34.767C215.885 34.5331 216.382 34.4162 216.933 34.4162C217.487 34.4162 217.978 34.5331 218.406 34.767C218.834 35.0009 219.169 35.3164 219.412 35.7134C219.655 36.1104 219.777 36.5521 219.777 37.0384C219.777 37.3861 219.714 37.7262 219.588 38.0586C219.465 38.3879 219.249 38.7557 218.941 39.1619C218.637 39.5651 218.214 40.0575 217.672 40.6392L215.548 42.9105V42.9844H219.943V44H213.979Z" fill="black"/>
<path d="M266.303 23.5455V33H265.158V24.7457H265.102L262.794 26.2784V25.1151L265.158 23.5455H266.303Z" fill="black"/>
<path d="M342.992 87.752H421.136V94.28H342.992V87.752ZM378.032 51.56H385.904V89.96H378.032V51.56Z" fill="black"/>
<path d="M368.293 82.7071C368.683 83.0976 369.317 83.0976 369.707 82.7071L376.071 76.3431C376.462 75.9526 376.462 75.3195 376.071 74.9289C375.681 74.5384 375.047 74.5384 374.657 74.9289L369 80.5858L363.343 74.9289C362.953 74.5384 362.319 74.5384 361.929 74.9289C361.538 75.3195 361.538 75.9526 361.929 76.3431L368.293 82.7071ZM368 52V82H370V52H368Z" fill="#24870C"/>
<path d="M412.707 102.707C413.098 102.317 413.098 101.683 412.707 101.293L406.343 94.9289C405.953 94.5384 405.319 94.5384 404.929 94.9289C404.538 95.3195 404.538 95.9526 404.929 96.3431L410.586 102L404.929 107.657C404.538 108.047 404.538 108.681 404.929 109.071C405.319 109.462 405.953 109.462 406.343 109.071L412.707 102.707ZM352 103H412V101H352V103Z" fill="#24870C"/>
<path d="M365.979 47V46.169L369.099 42.7528C369.466 42.3527 369.767 42.005 370.004 41.7095C370.241 41.411 370.417 41.1309 370.531 40.8693C370.647 40.6046 370.706 40.3277 370.706 40.0384C370.706 39.706 370.626 39.4182 370.466 39.1751C370.309 38.9319 370.094 38.7442 369.82 38.6119C369.546 38.4795 369.238 38.4134 368.896 38.4134C368.533 38.4134 368.216 38.4888 367.945 38.6396C367.678 38.7873 367.47 38.995 367.322 39.2628C367.177 39.5305 367.105 39.8445 367.105 40.2045H366.016C366.016 39.6506 366.143 39.1643 366.399 38.7457C366.654 38.3272 367.002 38.0009 367.442 37.767C367.885 37.5331 368.382 37.4162 368.933 37.4162C369.487 37.4162 369.978 37.5331 370.406 37.767C370.834 38.0009 371.169 38.3164 371.412 38.7134C371.655 39.1104 371.777 39.5521 371.777 40.0384C371.777 40.3861 371.714 40.7262 371.588 41.0586C371.465 41.3879 371.249 41.7557 370.941 42.1619C370.637 42.5651 370.214 43.0575 369.672 43.6392L367.548 45.9105V45.9844H371.943V47H365.979Z" fill="black"/>
<path d="M345.303 97.5455V107H344.158V98.7457H344.102L341.794 100.278V99.1151L344.158 97.5455H345.303Z" fill="black"/>
<path d="M482.568 63.176H560.712V69.704H482.568V63.176ZM517.608 67.304H525.576V106.952H517.608V67.304Z" fill="black"/>
<path d="M509.293 104.707C509.683 105.098 510.317 105.098 510.707 104.707L517.071 98.3431C517.462 97.9526 517.462 97.3195 517.071 96.9289C516.681 96.5384 516.047 96.5384 515.657 96.9289L510 102.586L504.343 96.9289C503.953 96.5384 503.319 96.5384 502.929 96.9289C502.538 97.3195 502.538 97.9526 502.929 98.3431L509.293 104.707ZM509 74V104H511V74H509Z" fill="#24870C"/>
<path d="M555.707 54.7071C556.098 54.3166 556.098 53.6834 555.707 53.2929L549.343 46.9289C548.953 46.5384 548.319 46.5384 547.929 46.9289C547.538 47.3195 547.538 47.9526 547.929 48.3431L553.586 54L547.929 59.6569C547.538 60.0474 547.538 60.6805 547.929 61.0711C548.319 61.4616 548.953 61.4616 549.343 61.0711L555.707 54.7071ZM495 55H555V53H495V55Z" fill="#24870C"/>
<path d="M491.979 83V82.169L495.099 78.7528C495.466 78.3527 495.767 78.005 496.004 77.7095C496.241 77.411 496.417 77.1309 496.531 76.8693C496.647 76.6046 496.706 76.3277 496.706 76.0384C496.706 75.706 496.626 75.4182 496.466 75.1751C496.309 74.9319 496.094 74.7442 495.82 74.6119C495.546 74.4795 495.238 74.4134 494.896 74.4134C494.533 74.4134 494.216 74.4888 493.945 74.6396C493.678 74.7873 493.47 74.995 493.322 75.2628C493.177 75.5305 493.105 75.8445 493.105 76.2045H492.016C492.016 75.6506 492.143 75.1643 492.399 74.7457C492.654 74.3272 493.002 74.0009 493.442 73.767C493.885 73.5331 494.382 73.4162 494.933 73.4162C495.487 73.4162 495.978 73.5331 496.406 73.767C496.834 74.0009 497.169 74.3164 497.412 74.7134C497.655 75.1104 497.777 75.5521 497.777 76.0384C497.777 76.3861 497.714 76.7262 497.588 77.0586C497.465 77.3879 497.249 77.7557 496.941 78.1619C496.637 78.5651 496.214 79.0575 495.672 79.6392L493.548 81.9105V81.9844H497.943V83H491.979Z" fill="black"/>
<path d="M486.303 47.5455V57H485.158V48.7457H485.102L482.794 50.2784V49.1151L485.158 47.5455H486.303Z" fill="black"/>
<path d="M620.992 72.296H699.136V78.92H620.992V72.296Z" fill="black"/>
<path d="M693.707 89.7071C694.098 89.3166 694.098 88.6834 693.707 88.2929L687.343 81.9289C686.953 81.5384 686.319 81.5384 685.929 81.9289C685.538 82.3195 685.538 82.9526 685.929 83.3431L691.586 89L685.929 94.6569C685.538 95.0474 685.538 95.6805 685.929 96.0711C686.319 96.4616 686.953 96.4616 687.343 96.0711L693.707 89.7071ZM633 90H693V88H633V90Z" fill="#24870C"/>
<path d="M627.303 84.5455V94H626.158V85.7457H626.102L623.794 87.2784V86.1151L626.158 84.5455H627.303Z" fill="black"/>
<path d="M100.512 177.008H122.496V183.632H100.512V177.008ZM100.512 200.624H122.496V207.344H100.512V200.624ZM94.944 151.952H102.912V237.2H94.944V151.952Z" fill="black"/>
<path d="M137.707 171.707C138.098 171.317 138.098 170.683 137.707 170.293L131.343 163.929C130.953 163.538 130.319 163.538 129.929 163.929C129.538 164.319 129.538 164.953 129.929 165.343L135.586 171L129.929 176.657C129.538 177.047 129.538 177.681 129.929 178.071C130.319 178.462 130.953 178.462 131.343 178.071L137.707 171.707ZM107 172H137V170H107V172Z" fill="#24870C"/>
<path d="M138.707 214.207C139.098 213.817 139.098 213.183 138.707 212.793L132.343 206.429C131.953 206.038 131.319 206.038 130.929 206.429C130.538 206.819 130.538 207.453 130.929 207.843L136.586 213.5L130.929 219.157C130.538 219.547 130.538 220.181 130.929 220.571C131.319 220.962 131.953 220.962 132.343 220.571L138.707 214.207ZM108 214.5H138V212.5H108V214.5Z" fill="#24870C"/>
<path d="M85.2929 224.707C85.6834 225.098 86.3166 225.098 86.7071 224.707L93.0711 218.343C93.4616 217.953 93.4616 217.319 93.0711 216.929C92.6805 216.538 92.0474 216.538 91.6569 216.929L86 222.586L80.3431 216.929C79.9526 216.538 79.3195 216.538 78.9289 216.929C78.5384 217.319 78.5384 217.953 78.9289 218.343L85.2929 224.707ZM85 164V224H87V164H85Z" fill="#24870C"/>
<path d="M141.979 176V175.169L145.099 171.753C145.466 171.353 145.767 171.005 146.004 170.71C146.241 170.411 146.417 170.131 146.531 169.869C146.647 169.605 146.706 169.328 146.706 169.038C146.706 168.706 146.626 168.418 146.466 168.175C146.309 167.932 146.094 167.744 145.82 167.612C145.546 167.48 145.238 167.413 144.896 167.413C144.533 167.413 144.216 167.489 143.945 167.64C143.678 167.787 143.47 167.995 143.322 168.263C143.177 168.531 143.105 168.844 143.105 169.205H142.016C142.016 168.651 142.143 168.164 142.399 167.746C142.654 167.327 143.002 167.001 143.442 166.767C143.885 166.533 144.382 166.416 144.933 166.416C145.487 166.416 145.978 166.533 146.406 166.767C146.834 167.001 147.169 167.316 147.412 167.713C147.655 168.11 147.777 168.552 147.777 169.038C147.777 169.386 147.714 169.726 147.588 170.059C147.465 170.388 147.249 170.756 146.941 171.162C146.637 171.565 146.214 172.058 145.672 172.639L143.548 174.911V174.984H147.943V176H141.979Z" fill="black"/>
<path d="M145.173 218.129C144.564 218.129 144.021 218.025 143.544 217.815C143.07 217.606 142.693 217.315 142.413 216.943C142.136 216.567 141.985 216.132 141.96 215.636H143.124C143.148 215.941 143.253 216.204 143.438 216.426C143.622 216.644 143.864 216.814 144.162 216.934C144.461 217.054 144.792 217.114 145.155 217.114C145.561 217.114 145.921 217.043 146.235 216.901C146.549 216.76 146.795 216.563 146.974 216.31C147.152 216.058 147.241 215.766 147.241 215.433C147.241 215.085 147.155 214.779 146.983 214.515C146.811 214.247 146.558 214.038 146.226 213.887C145.893 213.736 145.487 213.661 145.007 213.661H144.25V212.645H145.007C145.383 212.645 145.712 212.577 145.995 212.442C146.281 212.306 146.504 212.116 146.664 211.869C146.828 211.623 146.909 211.334 146.909 211.001C146.909 210.681 146.838 210.403 146.697 210.166C146.555 209.929 146.355 209.744 146.097 209.612C145.841 209.48 145.54 209.413 145.192 209.413C144.866 209.413 144.558 209.473 144.268 209.593C143.982 209.71 143.748 209.881 143.567 210.106C143.385 210.327 143.287 210.595 143.271 210.909H142.163C142.182 210.414 142.331 209.98 142.611 209.607C142.891 209.232 143.257 208.939 143.71 208.73C144.165 208.521 144.665 208.416 145.21 208.416C145.795 208.416 146.297 208.535 146.715 208.772C147.134 209.006 147.455 209.315 147.68 209.7C147.905 210.084 148.017 210.5 148.017 210.946C148.017 211.478 147.877 211.932 147.597 212.308C147.32 212.683 146.943 212.943 146.466 213.088V213.162C147.063 213.26 147.529 213.514 147.865 213.924C148.2 214.33 148.368 214.833 148.368 215.433C148.368 215.947 148.228 216.409 147.948 216.818C147.671 217.224 147.292 217.545 146.812 217.778C146.332 218.012 145.786 218.129 145.173 218.129Z" fill="black"/>
<path d="M87.3026 143.545V153H86.1577V144.746H86.1023L83.794 146.278V145.115L86.1577 143.545H87.3026Z" fill="black"/>
<path d="M249.056 152.048H257.024V237.296H249.056V152.048ZM228.608 175.664H251.168V182.288H228.608V175.664ZM228.608 198.512H251.168V205.232H228.608V198.512Z" fill="black"/>
<path d="M241.707 168.707C242.098 168.317 242.098 167.683 241.707 167.293L235.343 160.929C234.953 160.538 234.319 160.538 233.929 160.929C233.538 161.319 233.538 161.953 233.929 162.343L239.586 168L233.929 173.657C233.538 174.047 233.538 174.681 233.929 175.071C234.319 175.462 234.953 175.462 235.343 175.071L241.707 168.707ZM211 169H241V167H211V169Z" fill="#24870C"/>
<path d="M241.707 215.707C242.098 215.317 242.098 214.683 241.707 214.293L235.343 207.929C234.953 207.538 234.319 207.538 233.929 207.929C233.538 208.319 233.538 208.953 233.929 209.343L239.586 215L233.929 220.657C233.538 221.047 233.538 221.681 233.929 222.071C234.319 222.462 234.953 222.462 235.343 222.071L241.707 215.707ZM211 216H241V214H211V216Z" fill="#24870C"/>
<path d="M266.293 221.707C266.683 222.098 267.317 222.098 267.707 221.707L274.071 215.343C274.462 214.953 274.462 214.319 274.071 213.929C273.681 213.538 273.047 213.538 272.657 213.929L267 219.586L261.343 213.929C260.953 213.538 260.319 213.538 259.929 213.929C259.538 214.319 259.538 214.953 259.929 215.343L266.293 221.707ZM266 161V221H268V161H266Z" fill="#24870C"/>
<path d="M203.979 173V172.169L207.099 168.753C207.466 168.353 207.767 168.005 208.004 167.71C208.241 167.411 208.417 167.131 208.531 166.869C208.647 166.605 208.706 166.328 208.706 166.038C208.706 165.706 208.626 165.418 208.466 165.175C208.309 164.932 208.094 164.744 207.82 164.612C207.546 164.48 207.238 164.413 206.896 164.413C206.533 164.413 206.216 164.489 205.945 164.64C205.678 164.787 205.47 164.995 205.322 165.263C205.177 165.531 205.105 165.844 205.105 166.205H204.016C204.016 165.651 204.143 165.164 204.399 164.746C204.654 164.327 205.002 164.001 205.442 163.767C205.885 163.533 206.382 163.416 206.933 163.416C207.487 163.416 207.978 163.533 208.406 163.767C208.834 164.001 209.169 164.316 209.412 164.713C209.655 165.11 209.777 165.552 209.777 166.038C209.777 166.386 209.714 166.726 209.588 167.059C209.465 167.388 209.249 167.756 208.941 168.162C208.637 168.565 208.214 169.058 207.672 169.639L205.548 171.911V171.984H209.943V173H203.979Z" fill="black"/>
<path d="M207.173 218.129C206.564 218.129 206.021 218.025 205.544 217.815C205.07 217.606 204.693 217.315 204.413 216.943C204.136 216.567 203.985 216.132 203.96 215.636H205.124C205.148 215.941 205.253 216.204 205.438 216.426C205.622 216.644 205.864 216.814 206.162 216.934C206.461 217.054 206.792 217.114 207.155 217.114C207.561 217.114 207.921 217.043 208.235 216.901C208.549 216.76 208.795 216.563 208.974 216.31C209.152 216.058 209.241 215.766 209.241 215.433C209.241 215.085 209.155 214.779 208.983 214.515C208.811 214.247 208.558 214.038 208.226 213.887C207.893 213.736 207.487 213.661 207.007 213.661H206.25V212.645H207.007C207.383 212.645 207.712 212.577 207.995 212.442C208.281 212.306 208.504 212.116 208.664 211.869C208.828 211.623 208.909 211.334 208.909 211.001C208.909 210.681 208.838 210.403 208.697 210.166C208.555 209.929 208.355 209.744 208.097 209.612C207.841 209.48 207.54 209.413 207.192 209.413C206.866 209.413 206.558 209.473 206.268 209.593C205.982 209.71 205.748 209.881 205.567 210.106C205.385 210.327 205.287 210.595 205.271 210.909H204.163C204.182 210.414 204.331 209.98 204.611 209.607C204.891 209.232 205.257 208.939 205.71 208.73C206.165 208.521 206.665 208.416 207.21 208.416C207.795 208.416 208.297 208.535 208.715 208.772C209.134 209.006 209.455 209.315 209.68 209.7C209.905 210.084 210.017 210.5 210.017 210.946C210.017 211.478 209.877 211.932 209.597 212.308C209.32 212.683 208.943 212.943 208.466 213.088V213.162C209.063 213.26 209.529 213.514 209.865 213.924C210.2 214.33 210.368 214.833 210.368 215.433C210.368 215.947 210.228 216.409 209.948 216.818C209.671 217.224 209.292 217.545 208.812 217.778C208.332 218.012 207.786 218.129 207.173 218.129Z" fill="black"/>
<path d="M268.303 143.545V153H267.158V144.746H267.102L264.794 146.278V145.115L267.158 143.545H268.303Z" fill="black"/>
<path d="M344.664 206.96H422.712V213.584H344.664V206.96ZM364.728 168.848H372.6V209.648H364.728V168.848ZM394.872 168.848H402.744V209.456H394.872V168.848Z" fill="black"/>
<path d="M356.707 169.293C356.317 168.902 355.683 168.902 355.293 169.293L348.929 175.657C348.538 176.047 348.538 176.681 348.929 177.071C349.319 177.462 349.953 177.462 350.343 177.071L356 171.414L361.657 177.071C362.047 177.462 362.681 177.462 363.071 177.071C363.462 176.681 363.462 176.047 363.071 175.657L356.707 169.293ZM357 200V170H355V200H357Z" fill="#24870C"/>
<path d="M411.707 169.293C411.317 168.902 410.683 168.902 410.293 169.293L403.929 175.657C403.538 176.047 403.538 176.681 403.929 177.071C404.319 177.462 404.953 177.462 405.343 177.071L411 171.414L416.657 177.071C417.047 177.462 417.681 177.462 418.071 177.071C418.462 176.681 418.462 176.047 418.071 175.657L411.707 169.293ZM412 200V170H410V200H412Z" fill="#24870C"/>
<path d="M425.707 222.707C426.098 222.317 426.098 221.683 425.707 221.293L419.343 214.929C418.953 214.538 418.319 214.538 417.929 214.929C417.538 215.319 417.538 215.953 417.929 216.343L423.586 222L417.929 227.657C417.538 228.047 417.538 228.681 417.929 229.071C418.319 229.462 418.953 229.462 419.343 229.071L425.707 222.707ZM365 223H425V221H365V223Z" fill="#24870C"/>
<path d="M352.979 164V163.169L356.099 159.753C356.466 159.353 356.767 159.005 357.004 158.71C357.241 158.411 357.417 158.131 357.531 157.869C357.647 157.605 357.706 157.328 357.706 157.038C357.706 156.706 357.626 156.418 357.466 156.175C357.309 155.932 357.094 155.744 356.82 155.612C356.546 155.48 356.238 155.413 355.896 155.413C355.533 155.413 355.216 155.489 354.945 155.64C354.678 155.787 354.47 155.995 354.322 156.263C354.177 156.531 354.105 156.844 354.105 157.205H353.016C353.016 156.651 353.143 156.164 353.399 155.746C353.654 155.327 354.002 155.001 354.442 154.767C354.885 154.533 355.382 154.416 355.933 154.416C356.487 154.416 356.978 154.533 357.406 154.767C357.834 155.001 358.169 155.316 358.412 155.713C358.655 156.11 358.777 156.552 358.777 157.038C358.777 157.386 358.714 157.726 358.588 158.059C358.465 158.388 358.249 158.756 357.941 159.162C357.637 159.565 357.214 160.058 356.672 160.639L354.548 162.911V162.984H358.943V164H352.979Z" fill="black"/>
<path d="M411.173 164.129C410.564 164.129 410.021 164.025 409.544 163.815C409.07 163.606 408.693 163.315 408.413 162.943C408.136 162.567 407.985 162.132 407.96 161.636H409.124C409.148 161.941 409.253 162.204 409.438 162.426C409.622 162.644 409.864 162.814 410.162 162.934C410.461 163.054 410.792 163.114 411.155 163.114C411.561 163.114 411.921 163.043 412.235 162.901C412.549 162.76 412.795 162.563 412.974 162.31C413.152 162.058 413.241 161.766 413.241 161.433C413.241 161.085 413.155 160.779 412.983 160.515C412.811 160.247 412.558 160.038 412.226 159.887C411.893 159.736 411.487 159.661 411.007 159.661H410.25V158.645H411.007C411.383 158.645 411.712 158.577 411.995 158.442C412.281 158.306 412.504 158.116 412.664 157.869C412.828 157.623 412.909 157.334 412.909 157.001C412.909 156.681 412.838 156.403 412.697 156.166C412.555 155.929 412.355 155.744 412.097 155.612C411.841 155.48 411.54 155.413 411.192 155.413C410.866 155.413 410.558 155.473 410.268 155.593C409.982 155.71 409.748 155.881 409.567 156.106C409.385 156.327 409.287 156.595 409.271 156.909H408.163C408.182 156.414 408.331 155.98 408.611 155.607C408.891 155.232 409.257 154.939 409.71 154.73C410.165 154.521 410.665 154.416 411.21 154.416C411.795 154.416 412.297 154.535 412.715 154.772C413.134 155.006 413.455 155.315 413.68 155.7C413.905 156.084 414.017 156.5 414.017 156.946C414.017 157.478 413.877 157.932 413.597 158.308C413.32 158.683 412.943 158.943 412.466 159.088V159.162C413.063 159.26 413.529 159.514 413.865 159.924C414.2 160.33 414.368 160.833 414.368 161.433C414.368 161.947 414.228 162.409 413.948 162.818C413.671 163.224 413.292 163.545 412.812 163.778C412.332 164.012 411.786 164.129 411.173 164.129Z" fill="black"/>
<path d="M358.303 217.545V227H357.158V218.746H357.102L354.794 220.278V219.115L357.158 217.545H358.303Z" fill="black"/>
<path d="M482.992 179.984H561.136V186.512H482.992V179.984ZM503.632 184.496H511.6V223.856H503.632V184.496ZM532.144 184.496H540.112V223.856H532.144V184.496Z" fill="black"/>
<path d="M492.293 206.095C492.683 206.486 493.317 206.486 493.707 206.095L500.071 199.731C500.462 199.341 500.462 198.707 500.071 198.317C499.681 197.926 499.047 197.926 498.657 198.317L493 203.974L487.343 198.317C486.953 197.926 486.319 197.926 485.929 198.317C485.538 198.707 485.538 199.341 485.929 199.731L492.293 206.095ZM492 190V205.388H494V190H492Z" fill="#24870C"/>
<path d="M549.293 206.095C549.683 206.486 550.317 206.486 550.707 206.095L557.071 199.731C557.462 199.341 557.462 198.707 557.071 198.317C556.681 197.926 556.047 197.926 555.657 198.317L550 203.974L544.343 198.317C543.953 197.926 543.319 197.926 542.929 198.317C542.538 198.707 542.538 199.341 542.929 199.731L549.293 206.095ZM549 190V205.388H551V190H549Z" fill="#24870C"/>
<path d="M560.707 169.707C561.098 169.317 561.098 168.683 560.707 168.293L554.343 161.929C553.953 161.538 553.319 161.538 552.929 161.929C552.538 162.319 552.538 162.953 552.929 163.343L558.586 169L552.929 174.657C552.538 175.047 552.538 175.681 552.929 176.071C553.319 176.462 553.953 176.462 554.343 176.071L560.707 169.707ZM500 170H560V168H500V170Z" fill="#24870C"/>
<path d="M489.979 218V217.169L493.099 213.753C493.466 213.353 493.767 213.005 494.004 212.71C494.241 212.411 494.417 212.131 494.531 211.869C494.647 211.605 494.706 211.328 494.706 211.038C494.706 210.706 494.626 210.418 494.466 210.175C494.309 209.932 494.094 209.744 493.82 209.612C493.546 209.48 493.238 209.413 492.896 209.413C492.533 209.413 492.216 209.489 491.945 209.64C491.678 209.787 491.47 209.995 491.322 210.263C491.177 210.531 491.105 210.844 491.105 211.205H490.016C490.016 210.651 490.143 210.164 490.399 209.746C490.654 209.327 491.002 209.001 491.442 208.767C491.885 208.533 492.382 208.416 492.933 208.416C493.487 208.416 493.978 208.533 494.406 208.767C494.834 209.001 495.169 209.316 495.412 209.713C495.655 210.11 495.777 210.552 495.777 211.038C495.777 211.386 495.714 211.726 495.588 212.059C495.465 212.388 495.249 212.756 494.941 213.162C494.637 213.565 494.214 214.058 493.672 214.639L491.548 216.911V216.984H495.943V218H489.979Z" fill="black"/>
<path d="M550.173 218.129C549.564 218.129 549.021 218.025 548.544 217.815C548.07 217.606 547.693 217.315 547.413 216.943C547.136 216.567 546.985 216.132 546.96 215.636H548.124C548.148 215.941 548.253 216.204 548.438 216.426C548.622 216.644 548.864 216.814 549.162 216.934C549.461 217.054 549.792 217.114 550.155 217.114C550.561 217.114 550.921 217.043 551.235 216.901C551.549 216.76 551.795 216.563 551.974 216.31C552.152 216.058 552.241 215.766 552.241 215.433C552.241 215.085 552.155 214.779 551.983 214.515C551.811 214.247 551.558 214.038 551.226 213.887C550.893 213.736 550.487 213.661 550.007 213.661H549.25V212.645H550.007C550.383 212.645 550.712 212.577 550.995 212.442C551.281 212.306 551.504 212.116 551.664 211.869C551.828 211.623 551.909 211.334 551.909 211.001C551.909 210.681 551.838 210.403 551.697 210.166C551.555 209.929 551.355 209.744 551.097 209.612C550.841 209.48 550.54 209.413 550.192 209.413C549.866 209.413 549.558 209.473 549.268 209.593C548.982 209.71 548.748 209.881 548.567 210.106C548.385 210.327 548.287 210.595 548.271 210.909H547.163C547.182 210.414 547.331 209.98 547.611 209.607C547.891 209.232 548.257 208.939 548.71 208.73C549.165 208.521 549.665 208.416 550.21 208.416C550.795 208.416 551.297 208.535 551.715 208.772C552.134 209.006 552.455 209.315 552.68 209.7C552.905 210.084 553.017 210.5 553.017 210.946C553.017 211.478 552.877 211.932 552.597 212.308C552.32 212.683 551.943 212.943 551.466 213.088V213.162C552.063 213.26 552.529 213.514 552.865 213.924C553.2 214.33 553.368 214.833 553.368 215.433C553.368 215.947 553.228 216.409 552.948 216.818C552.671 217.224 552.292 217.545 551.812 217.778C551.332 218.012 550.786 218.129 550.173 218.129Z" fill="black"/>
<path d="M491.303 164.545V174H490.158V165.746H490.102L487.794 167.278V166.115L490.158 164.545H491.303Z" fill="black"/>
<path d="M657.608 152.048H665.576V237.296H657.608V152.048Z" fill="black"/>
<path d="M644.293 233.707C644.683 234.098 645.317 234.098 645.707 233.707L652.071 227.343C652.462 226.953 652.462 226.319 652.071 225.929C651.681 225.538 651.047 225.538 650.657 225.929L645 231.586L639.343 225.929C638.953 225.538 638.319 225.538 637.929 225.929C637.538 226.319 637.538 226.953 637.929 227.343L644.293 233.707ZM644 173V233H646V173H644Z" fill="#24870C"/>
<path d="M645.303 153.545V163H644.158V154.746H644.102L641.794 156.278V155.115L644.158 153.545H645.303Z" fill="black"/>
</svg>
