<svg width="800" height="410" viewBox="0 0 800 410" fill="none" xmlns="http://www.w3.org/2000/svg">
<rect width="800" height="410" fill="white"/>
<path d="M77.184 54.632H131.136V99.944H123.264V61.16H77.184V54.632Z" fill="black"/>
<path d="M143 48H144V47H143V48ZM142.293 103.207C142.683 103.598 143.317 103.598 143.707 103.207L150.071 96.8431C150.462 96.4526 150.462 95.8195 150.071 95.4289C149.681 95.0384 149.047 95.0384 148.657 95.4289L143 101.086L137.343 95.4289C136.953 95.0384 136.319 95.0384 135.929 95.4289C135.538 95.8195 135.538 96.4526 135.929 96.8431L142.293 103.207ZM87 49H143V47H87V49ZM142 48V102.5H144V48H142Z" fill="#24870C"/>
<path d="M81.3097 44.7273V52H80.429V45.6506H80.3864L78.6108 46.8295V45.9347L80.429 44.7273H81.3097Z" fill="black"/>
<path d="M215.896 53.192H270.232V79.784H223.672V97.544H216.088V73.448H262.648V59.624H215.896V53.192ZM216.088 93.896H271.768V100.52H216.088V93.896Z" fill="black"/>
<path d="M221.31 42.7273V50H220.429V43.6506H220.386L218.611 44.8295V43.9347L220.429 42.7273H221.31Z" fill="black"/>
<path d="M279 46H280V45H279V46ZM278.293 77.7071C278.683 78.0976 279.317 78.0976 279.707 77.7071L286.071 71.3431C286.462 70.9526 286.462 70.3195 286.071 69.9289C285.681 69.5384 285.047 69.5384 284.657 69.9289L279 75.5858L273.343 69.9289C272.953 69.5384 272.319 69.5384 271.929 69.9289C271.538 70.3195 271.538 70.9526 271.929 71.3431L278.293 77.7071ZM228 47H279V45H228V47ZM278 46V77H280V46H278Z" fill="#24870C"/>
<path d="M258.707 67.7071C259.098 67.3166 259.098 66.6834 258.707 66.2929L252.343 59.9289C251.953 59.5384 251.319 59.5384 250.929 59.9289C250.538 60.3195 250.538 60.9526 250.929 61.3431L256.586 67L250.929 72.6569C250.538 73.0474 250.538 73.6805 250.929 74.0711C251.319 74.4616 251.953 74.4616 252.343 74.0711L258.707 67.7071ZM228 68H258V66H228V68Z" fill="#24870C"/>
<path d="M218.753 71V70.3608L221.153 67.733C221.435 67.4252 221.667 67.1577 221.849 66.9304C222.032 66.7008 222.167 66.4853 222.254 66.2841C222.344 66.0805 222.389 65.8674 222.389 65.6449C222.389 65.3892 222.328 65.1679 222.205 64.9808C222.084 64.7938 221.918 64.6494 221.707 64.5476C221.497 64.4458 221.26 64.3949 220.997 64.3949C220.718 64.3949 220.474 64.4529 220.266 64.5689C220.06 64.6825 219.9 64.8423 219.786 65.0483C219.675 65.2543 219.619 65.4957 219.619 65.7727H218.781C218.781 65.3466 218.879 64.9725 219.076 64.6506C219.272 64.3286 219.54 64.0777 219.879 63.8977C220.219 63.7178 220.602 63.6278 221.026 63.6278C221.452 63.6278 221.829 63.7178 222.158 63.8977C222.487 64.0777 222.746 64.3203 222.933 64.6257C223.12 64.9311 223.213 65.2708 223.213 65.6449C223.213 65.9124 223.165 66.174 223.067 66.4297C222.973 66.683 222.807 66.9659 222.57 67.2784C222.336 67.5885 222.01 67.9673 221.594 68.4148L219.96 70.1619V70.2188H223.341V71H218.753Z" fill="black"/>
<path d="M211 108.5H210V109.5H211V108.5ZM277.707 109.207C278.098 108.817 278.098 108.183 277.707 107.793L271.343 101.429C270.953 101.038 270.319 101.038 269.929 101.429C269.538 101.819 269.538 102.453 269.929 102.843L275.586 108.5L269.929 114.157C269.538 114.547 269.538 115.181 269.929 115.571C270.319 115.962 270.953 115.962 271.343 115.571L277.707 109.207ZM210 86V108.5H212V86H210ZM211 109.5H277V107.5H211V109.5Z" fill="#24870C"/>
<path d="M211.21 81.0994C210.741 81.0994 210.324 81.0189 209.957 80.858C209.592 80.697 209.302 80.4732 209.087 80.1868C208.874 79.898 208.758 79.563 208.739 79.1818H209.634C209.652 79.4162 209.733 79.6186 209.875 79.7891C210.017 79.9571 210.203 80.0874 210.433 80.1797C210.662 80.272 210.917 80.3182 211.196 80.3182C211.509 80.3182 211.786 80.2637 212.027 80.1548C212.268 80.0459 212.458 79.8944 212.595 79.7003C212.732 79.5062 212.801 79.2812 212.801 79.0256C212.801 78.758 212.735 78.5225 212.602 78.3189C212.47 78.1129 212.276 77.9519 212.02 77.8359C211.764 77.7199 211.452 77.6619 211.082 77.6619H210.5V76.8807H211.082C211.371 76.8807 211.625 76.8286 211.842 76.7244C212.063 76.6203 212.234 76.4735 212.357 76.2841C212.483 76.0947 212.545 75.8722 212.545 75.6165C212.545 75.3703 212.491 75.156 212.382 74.9737C212.273 74.7914 212.119 74.6494 211.92 74.5476C211.724 74.4458 211.492 74.3949 211.224 74.3949C210.973 74.3949 210.737 74.4411 210.514 74.5334C210.294 74.6233 210.114 74.7547 209.974 74.9276C209.835 75.098 209.759 75.304 209.747 75.5455H208.895C208.909 75.1643 209.024 74.8305 209.239 74.544C209.455 74.2552 209.737 74.0303 210.085 73.8693C210.435 73.7083 210.82 73.6278 211.239 73.6278C211.688 73.6278 212.074 73.719 212.396 73.9013C212.718 74.0812 212.966 74.3191 213.138 74.6151C213.311 74.911 213.398 75.2306 213.398 75.5739C213.398 75.9834 213.29 76.3326 213.075 76.6214C212.862 76.9103 212.571 77.1103 212.205 77.2216V77.2784C212.664 77.3542 213.022 77.5495 213.281 77.8643C213.539 78.1768 213.668 78.5639 213.668 79.0256C213.668 79.4209 213.56 79.776 213.344 80.0909C213.131 80.4034 212.84 80.6496 212.471 80.8295C212.102 81.0095 211.681 81.0994 211.21 81.0994Z" fill="black"/>
<path d="M378.704 52.52H385.52V66.536C385.52 71.08 384.784 75.24 383.312 79.016C381.84 82.792 379.728 86.12 376.976 89C374.288 91.816 371.12 94.248 367.472 96.296C363.888 98.344 359.984 99.912 355.76 101L351.92 94.568C355.76 93.672 359.28 92.392 362.48 90.728C365.744 89 368.592 86.952 371.024 84.584C373.456 82.216 375.344 79.528 376.688 76.52C378.032 73.448 378.704 70.12 378.704 66.536V52.52ZM379.76 52.52H386.576V66.536C386.576 70.12 387.248 73.448 388.592 76.52C389.936 79.528 391.824 82.216 394.256 84.584C396.688 86.952 399.504 89 402.704 90.728C405.968 92.392 409.52 93.672 413.36 94.568L409.52 101C405.296 99.912 401.36 98.344 397.712 96.296C394.128 94.248 390.992 91.816 388.304 89C385.616 86.12 383.504 82.792 381.968 79.016C380.496 75.24 379.76 71.08 379.76 66.536V52.52Z" fill="black"/>
<path d="M376.31 40.7273V48H375.429V41.6506H375.386L373.611 42.8295V41.9347L375.429 40.7273H376.31Z" fill="black"/>
<path d="M385.753 48V47.3608L388.153 44.733C388.435 44.4252 388.667 44.1577 388.849 43.9304C389.032 43.7008 389.167 43.4853 389.254 43.2841C389.344 43.0805 389.389 42.8674 389.389 42.6449C389.389 42.3892 389.328 42.1679 389.205 41.9808C389.084 41.7938 388.918 41.6494 388.707 41.5476C388.497 41.4458 388.26 41.3949 387.997 41.3949C387.718 41.3949 387.474 41.4529 387.266 41.5689C387.06 41.6825 386.9 41.8423 386.786 42.0483C386.675 42.2543 386.619 42.4957 386.619 42.7727H385.781C385.781 42.3466 385.879 41.9725 386.076 41.6506C386.272 41.3286 386.54 41.0777 386.879 40.8977C387.219 40.7178 387.602 40.6278 388.026 40.6278C388.452 40.6278 388.829 40.7178 389.158 40.8977C389.487 41.0777 389.746 41.3203 389.933 41.6257C390.12 41.9311 390.213 42.2708 390.213 42.6449C390.213 42.9124 390.165 43.174 390.067 43.4297C389.973 43.683 389.807 43.9659 389.57 44.2784C389.336 44.5885 389.01 44.9673 388.594 45.4148L386.96 47.1619V47.2188H390.341V48H385.753Z" fill="black"/>
<path d="M389.5 64L388.503 64.0797L388.51 64.1622L388.53 64.2425L389.5 64ZM392 74L391.03 74.2425L391.079 74.4384L391.2 74.6L392 74ZM396.5 80L395.7 80.6L395.803 80.737L395.945 80.8321L396.5 80ZM408.5 88L407.945 88.8321L408.057 88.9063L408.184 88.9487L408.5 88ZM423.947 93.8944C424.441 93.6474 424.641 93.0468 424.394 92.5528L420.37 84.5029C420.123 84.009 419.522 83.8087 419.028 84.0557C418.534 84.3027 418.334 84.9034 418.581 85.3974L422.158 92.5528L415.003 96.1305C414.509 96.3775 414.309 96.9782 414.556 97.4721C414.803 97.9661 415.403 98.1663 415.897 97.9193L423.947 93.8944ZM387.503 51.5797L388.503 64.0797L390.497 63.9203L389.497 51.4203L387.503 51.5797ZM388.53 64.2425L391.03 74.2425L392.97 73.7575L390.47 63.7575L388.53 64.2425ZM391.2 74.6L395.7 80.6L397.3 79.4L392.8 73.4L391.2 74.6ZM395.945 80.8321L401.945 84.8321L403.055 83.1679L397.055 79.1679L395.945 80.8321ZM401.945 84.8321L407.945 88.8321L409.055 87.1679L403.055 83.1679L401.945 84.8321ZM408.184 88.9487L423.184 93.9487L423.816 92.0513L408.816 87.0513L408.184 88.9487Z" fill="#24870C"/>
<path d="M375 64.5L375.997 64.5797L375.99 64.6622L375.97 64.7425L375 64.5ZM372.5 74.5L373.47 74.7425L373.421 74.9384L373.3 75.1L372.5 74.5ZM368 80.5L368.8 81.1L368.697 81.237L368.555 81.3321L368 80.5ZM356 88.5L356.555 89.3321L356.443 89.4063L356.316 89.4487L356 88.5ZM340.553 94.3944C340.059 94.1474 339.859 93.5468 340.106 93.0528L344.13 85.0029C344.377 84.509 344.978 84.3087 345.472 84.5557C345.966 84.8027 346.166 85.4034 345.919 85.8974L342.342 93.0528L349.497 96.6305C349.991 96.8775 350.191 97.4782 349.944 97.9721C349.697 98.4661 349.097 98.6663 348.603 98.4193L340.553 94.3944ZM376.997 52.0797L375.997 64.5797L374.003 64.4203L375.003 51.9203L376.997 52.0797ZM375.97 64.7425L373.47 74.7425L371.53 74.2575L374.03 64.2575L375.97 64.7425ZM373.3 75.1L368.8 81.1L367.2 79.9L371.7 73.9L373.3 75.1ZM368.555 81.3321L362.555 85.3321L361.445 83.6679L367.445 79.6679L368.555 81.3321ZM362.555 85.3321L356.555 89.3321L355.445 87.6679L361.445 83.6679L362.555 85.3321ZM356.316 89.4487L341.316 94.4487L340.684 92.5513L355.684 87.5513L356.316 89.4487Z" fill="#24870C"/>
<path d="M495.24 53.096H548.712V100.712H540.648V59.624H495.24V53.096ZM543.336 73.832V80.168L494.376 83.336L493.32 76.136L543.336 73.832Z" fill="black"/>
<path d="M535.707 86.7071C536.098 86.3166 536.098 85.6834 535.707 85.2929L529.343 78.9289C528.953 78.5384 528.319 78.5384 527.929 78.9289C527.538 79.3195 527.538 79.9526 527.929 80.3431L533.586 86L527.929 91.6569C527.538 92.0474 527.538 92.6805 527.929 93.0711C528.319 93.4616 528.953 93.4616 529.343 93.0711L535.707 86.7071ZM496 87H535V85H496V87Z" fill="#24870C"/>
<path d="M499.31 43.7273V51H498.429V44.6506H498.386L496.611 45.8295V44.9347L498.429 43.7273H499.31Z" fill="black"/>
<path d="M487.753 90V89.3608L490.153 86.733C490.435 86.4252 490.667 86.1577 490.849 85.9304C491.032 85.7008 491.167 85.4853 491.254 85.2841C491.344 85.0805 491.389 84.8674 491.389 84.6449C491.389 84.3892 491.328 84.1679 491.205 83.9808C491.084 83.7938 490.918 83.6494 490.707 83.5476C490.497 83.4458 490.26 83.3949 489.997 83.3949C489.718 83.3949 489.474 83.4529 489.266 83.5689C489.06 83.6825 488.9 83.8423 488.786 84.0483C488.675 84.2543 488.619 84.4957 488.619 84.7727H487.781C487.781 84.3466 487.879 83.9725 488.076 83.6506C488.272 83.3286 488.54 83.0777 488.879 82.8977C489.219 82.7178 489.602 82.6278 490.026 82.6278C490.452 82.6278 490.829 82.7178 491.158 82.8977C491.487 83.0777 491.746 83.3203 491.933 83.6257C492.12 83.9311 492.213 84.2708 492.213 84.6449C492.213 84.9124 492.165 85.174 492.067 85.4297C491.973 85.683 491.807 85.9659 491.57 86.2784C491.336 86.5885 491.01 86.9673 490.594 87.4148L488.96 89.1619V89.2188H492.341V90H487.753Z" fill="black"/>
<path d="M556.516 47.5H557.516V46.5H556.516V47.5ZM555.809 106.207C556.199 106.598 556.832 106.598 557.223 106.207L563.587 99.8431C563.977 99.4526 563.977 98.8195 563.587 98.4289C563.196 98.0384 562.563 98.0384 562.173 98.4289L556.516 104.086L550.859 98.4289C550.468 98.0384 549.835 98.0384 549.445 98.4289C549.054 98.8195 549.054 99.4526 549.445 99.8431L555.809 106.207ZM504.516 48.5H556.516V46.5H504.516V48.5ZM555.516 47.5V105.5H557.516V47.5H555.516Z" fill="#24870C"/>
<path d="M633.664 92.648H688.672V99.176H633.664V92.648ZM633.664 54.632H641.632V95.144H633.664V54.632Z" fill="black"/>
<path d="M626 107.504H625V108.504H626V107.504ZM692.207 108.212C692.598 107.821 692.598 107.188 692.207 106.797L685.843 100.433C685.453 100.043 684.819 100.043 684.429 100.433C684.038 100.824 684.038 101.457 684.429 101.848L690.086 107.504L684.429 113.161C684.038 113.552 684.038 114.185 684.429 114.576C684.819 114.966 685.453 114.966 685.843 114.576L692.207 108.212ZM625 52V107.504H627V52H625ZM626 108.504H691.5V106.504H626V108.504Z" fill="#24870C"/>
<path d="M626.31 38.7273V46H625.429V39.6506H625.386L623.611 40.8295V39.9347L625.429 38.7273H626.31Z" fill="black"/>
<path d="M77.472 170.248H131.712V215.656H77.472V170.248ZM123.744 176.776H85.44V209.128H123.744V176.776Z" fill="black"/>
<path d="M66.3097 164.727V172H65.429V165.651H65.3864L63.6108 166.83V165.935L65.429 164.727H66.3097Z" fill="black"/>
<path d="M85.2102 224.099C84.7415 224.099 84.3236 224.019 83.9567 223.858C83.5921 223.697 83.3021 223.473 83.0866 223.187C82.8736 222.898 82.7576 222.563 82.7386 222.182H83.6335C83.6525 222.416 83.733 222.619 83.875 222.789C84.017 222.957 84.2029 223.087 84.4325 223.18C84.6622 223.272 84.9167 223.318 85.196 223.318C85.5085 223.318 85.7855 223.264 86.027 223.155C86.2685 223.046 86.4579 222.894 86.5952 222.7C86.7325 222.506 86.8011 222.281 86.8011 222.026C86.8011 221.758 86.7348 221.522 86.6023 221.319C86.4697 221.113 86.2756 220.952 86.0199 220.836C85.7642 220.72 85.4517 220.662 85.0824 220.662H84.5V219.881H85.0824C85.3712 219.881 85.6245 219.829 85.8423 219.724C86.0625 219.62 86.2341 219.473 86.3572 219.284C86.4827 219.095 86.5455 218.872 86.5455 218.616C86.5455 218.37 86.491 218.156 86.3821 217.974C86.2732 217.791 86.1193 217.649 85.9205 217.548C85.724 217.446 85.492 217.395 85.2244 217.395C84.9735 217.395 84.7367 217.441 84.5142 217.533C84.294 217.623 84.1141 217.755 83.9744 217.928C83.8348 218.098 83.759 218.304 83.7472 218.545H82.8949C82.9091 218.164 83.0239 217.83 83.2393 217.544C83.4548 217.255 83.7365 217.03 84.0845 216.869C84.4349 216.708 84.8196 216.628 85.2386 216.628C85.6884 216.628 86.0743 216.719 86.3963 216.901C86.7183 217.081 86.9657 217.319 87.1385 217.615C87.3113 217.911 87.3977 218.231 87.3977 218.574C87.3977 218.983 87.29 219.333 87.0746 219.621C86.8615 219.91 86.5715 220.11 86.2045 220.222V220.278C86.6638 220.354 87.0225 220.549 87.2805 220.864C87.5386 221.177 87.6676 221.564 87.6676 222.026C87.6676 222.421 87.5599 222.776 87.3445 223.091C87.1314 223.403 86.8402 223.65 86.4709 223.83C86.1016 224.009 85.6813 224.099 85.2102 224.099Z" fill="black"/>
<path d="M82.7528 162V161.361L85.1534 158.733C85.4351 158.425 85.6671 158.158 85.8494 157.93C86.0317 157.701 86.1667 157.485 86.2543 157.284C86.3442 157.08 86.3892 156.867 86.3892 156.645C86.3892 156.389 86.3277 156.168 86.2045 155.981C86.0838 155.794 85.9181 155.649 85.7074 155.548C85.4967 155.446 85.2599 155.395 84.9972 155.395C84.7178 155.395 84.474 155.453 84.2656 155.569C84.0597 155.683 83.8999 155.842 83.7862 156.048C83.675 156.254 83.6193 156.496 83.6193 156.773H82.7812C82.7812 156.347 82.8795 155.973 83.076 155.651C83.2725 155.329 83.54 155.078 83.8786 154.898C84.2195 154.718 84.6018 154.628 85.0256 154.628C85.4517 154.628 85.8293 154.718 86.1584 154.898C86.4875 155.078 86.7455 155.32 86.9325 155.626C87.1196 155.931 87.2131 156.271 87.2131 156.645C87.2131 156.912 87.1645 157.174 87.0675 157.43C86.9728 157.683 86.8071 157.966 86.5703 158.278C86.3359 158.589 86.0104 158.967 85.5938 159.415L83.9602 161.162V161.219H87.3409V162H82.7528Z" fill="black"/>
<path d="M65.2929 214.707C65.6834 215.098 66.3166 215.098 66.7071 214.707L73.0711 208.343C73.4616 207.953 73.4616 207.319 73.0711 206.929C72.6805 206.538 72.0474 206.538 71.6569 206.929L66 212.586L60.3431 206.929C59.9526 206.538 59.3195 206.538 58.9289 206.929C58.5384 207.319 58.5384 207.953 58.9289 208.343L65.2929 214.707ZM65 179L65 214H67L67 179H65Z" fill="#24870C"/>
<path d="M141 161H142V160H141V161ZM140.293 206.207C140.683 206.598 141.317 206.598 141.707 206.207L148.071 199.843C148.462 199.453 148.462 198.819 148.071 198.429C147.681 198.038 147.047 198.038 146.657 198.429L141 204.086L135.343 198.429C134.953 198.038 134.319 198.038 133.929 198.429C133.538 198.819 133.538 199.453 133.929 199.843L140.293 206.207ZM94 162H141V160H94V162ZM140 161V205.5H142V161H140Z" fill="#24870C"/>
<path d="M129.707 224.707C130.098 224.317 130.098 223.683 129.707 223.293L123.343 216.929C122.953 216.538 122.319 216.538 121.929 216.929C121.538 217.319 121.538 217.953 121.929 218.343L127.586 224L121.929 229.657C121.538 230.047 121.538 230.681 121.929 231.071C122.319 231.462 122.953 231.462 123.343 231.071L129.707 224.707ZM94 225H129V223H94V225Z" fill="#24870C"/>
<path d="M243.16 168.808C247 168.808 250.552 169.416 253.816 170.632C257.08 171.784 259.96 173.448 262.456 175.624C264.952 177.736 266.872 180.232 268.216 183.112C269.624 185.992 270.328 189.192 270.328 192.712C270.328 196.168 269.624 199.368 268.216 202.312C266.872 205.256 264.952 207.816 262.456 209.992C259.96 212.104 257.08 213.736 253.816 214.888C250.552 216.04 247 216.616 243.16 216.616C239.384 216.616 235.864 216.04 232.6 214.888C229.336 213.736 226.456 212.104 223.96 209.992C221.464 207.816 219.512 205.256 218.104 202.312C216.76 199.368 216.088 196.168 216.088 192.712C216.088 189.192 216.76 185.992 218.104 183.112C219.512 180.232 221.464 177.736 223.96 175.624C226.456 173.448 229.336 171.784 232.6 170.632C235.864 169.416 239.384 168.808 243.16 168.808ZM243.16 175.72C239.576 175.72 236.312 176.456 233.368 177.928C230.424 179.4 228.088 181.416 226.36 183.976C224.632 186.536 223.768 189.448 223.768 192.712C223.768 195.976 224.632 198.92 226.36 201.544C228.088 204.104 230.424 206.152 233.368 207.688C236.312 209.16 239.576 209.896 243.16 209.896C246.872 209.896 250.168 209.16 253.048 207.688C255.928 206.152 258.232 204.104 259.96 201.544C261.688 198.92 262.552 195.976 262.552 192.712C262.552 189.448 261.688 186.536 259.96 183.976C258.232 181.416 255.928 179.4 253.048 177.928C250.168 176.456 246.872 175.72 243.16 175.72Z" fill="black"/>
<path d="M238.31 154.727V162H237.429V155.651H237.386L235.611 156.83V155.935L237.429 154.727H238.31Z" fill="black"/>
<path d="M259 161L259.524 160.148L259.461 160.11L259.394 160.081L259 161ZM265.5 165L266.1 164.2L266.063 164.172L266.024 164.148L265.5 165ZM271.5 169.5L272.382 169.029L272.278 168.833L272.1 168.7L271.5 169.5ZM275.5 177L276.456 176.706L276.428 176.614L276.382 176.529L275.5 177ZM277.5 183.5L278.491 183.368L278.48 183.285L278.456 183.206L277.5 183.5ZM278.5 191L279.49 191.141L279.509 191.005L279.491 190.868L278.5 191ZM276.7 198.6C277.031 199.042 277.658 199.131 278.1 198.8L285.3 193.4C285.742 193.069 285.831 192.442 285.5 192C285.169 191.558 284.542 191.469 284.1 191.8L277.7 196.6L272.9 190.2C272.569 189.758 271.942 189.669 271.5 190C271.058 190.331 270.969 190.958 271.3 191.4L276.7 198.6ZM252 158L252.394 157.081L252.205 157H252V158ZM258.476 161.852L264.976 165.852L266.024 164.148L259.524 160.148L258.476 161.852ZM264.9 165.8L270.9 170.3L272.1 168.7L266.1 164.2L264.9 165.8ZM270.618 169.971L274.618 177.471L276.382 176.529L272.382 169.029L270.618 169.971ZM274.544 177.294L276.544 183.794L278.456 183.206L276.456 176.706L274.544 177.294ZM276.509 183.632L277.509 191.132L279.491 190.868L278.491 183.368L276.509 183.632ZM277.51 190.859L276.51 197.859L278.49 198.141L279.49 191.141L277.51 190.859ZM244 159H252V157H244V159ZM251.606 158.919L258.606 161.919L259.394 160.081L252.394 157.081L251.606 158.919Z" fill="#24870C"/>
<path d="M355.76 169.96H409.616V176.488H363.632V212.776H355.76V169.96ZM355.76 209.416H410.384V215.944H355.76V209.416ZM357.584 189.256H408.944V195.784H357.584V189.256Z" fill="black"/>
<path d="M359.31 158.727V166H358.429V159.651H358.386L356.611 160.83V159.935L358.429 158.727H359.31Z" fill="black"/>
<path d="M413.753 186V185.361L416.153 182.733C416.435 182.425 416.667 182.158 416.849 181.93C417.032 181.701 417.167 181.485 417.254 181.284C417.344 181.08 417.389 180.867 417.389 180.645C417.389 180.389 417.328 180.168 417.205 179.981C417.084 179.794 416.918 179.649 416.707 179.548C416.497 179.446 416.26 179.395 415.997 179.395C415.718 179.395 415.474 179.453 415.266 179.569C415.06 179.683 414.9 179.842 414.786 180.048C414.675 180.254 414.619 180.496 414.619 180.773H413.781C413.781 180.347 413.879 179.973 414.076 179.651C414.272 179.329 414.54 179.078 414.879 178.898C415.219 178.718 415.602 178.628 416.026 178.628C416.452 178.628 416.829 178.718 417.158 178.898C417.487 179.078 417.746 179.32 417.933 179.626C418.12 179.931 418.213 180.271 418.213 180.645C418.213 180.912 418.165 181.174 418.067 181.43C417.973 181.683 417.807 181.966 417.57 182.278C417.336 182.589 417.01 182.967 416.594 183.415L414.96 185.162V185.219H418.341V186H413.753Z" fill="black"/>
<path d="M349.21 170.099C348.741 170.099 348.324 170.019 347.957 169.858C347.592 169.697 347.302 169.473 347.087 169.187C346.874 168.898 346.758 168.563 346.739 168.182H347.634C347.652 168.416 347.733 168.619 347.875 168.789C348.017 168.957 348.203 169.087 348.433 169.18C348.662 169.272 348.917 169.318 349.196 169.318C349.509 169.318 349.786 169.264 350.027 169.155C350.268 169.046 350.458 168.894 350.595 168.7C350.732 168.506 350.801 168.281 350.801 168.026C350.801 167.758 350.735 167.522 350.602 167.319C350.47 167.113 350.276 166.952 350.02 166.836C349.764 166.72 349.452 166.662 349.082 166.662H348.5V165.881H349.082C349.371 165.881 349.625 165.829 349.842 165.724C350.063 165.62 350.234 165.473 350.357 165.284C350.483 165.095 350.545 164.872 350.545 164.616C350.545 164.37 350.491 164.156 350.382 163.974C350.273 163.791 350.119 163.649 349.92 163.548C349.724 163.446 349.492 163.395 349.224 163.395C348.973 163.395 348.737 163.441 348.514 163.533C348.294 163.623 348.114 163.755 347.974 163.928C347.835 164.098 347.759 164.304 347.747 164.545H346.895C346.909 164.164 347.024 163.83 347.239 163.544C347.455 163.255 347.737 163.03 348.085 162.869C348.435 162.708 348.82 162.628 349.239 162.628C349.688 162.628 350.074 162.719 350.396 162.901C350.718 163.081 350.966 163.319 351.138 163.615C351.311 163.911 351.398 164.231 351.398 164.574C351.398 164.983 351.29 165.333 351.075 165.621C350.862 165.91 350.571 166.11 350.205 166.222V166.278C350.664 166.354 351.022 166.549 351.281 166.864C351.539 167.177 351.668 167.564 351.668 168.026C351.668 168.421 351.56 168.776 351.344 169.091C351.131 169.403 350.84 169.65 350.471 169.83C350.102 170.009 349.681 170.099 349.21 170.099Z" fill="black"/>
<path d="M407.707 183.707C408.098 183.317 408.098 182.683 407.707 182.293L401.343 175.929C400.953 175.538 400.319 175.538 399.929 175.929C399.538 176.319 399.538 176.953 399.929 177.343L405.586 183L399.929 188.657C399.538 189.047 399.538 189.681 399.929 190.071C400.319 190.462 400.953 190.462 401.343 190.071L407.707 183.707ZM366 184H407V182H366V184Z" fill="#24870C"/>
<path d="M407.707 162.707C408.098 162.317 408.098 161.683 407.707 161.293L401.343 154.929C400.953 154.538 400.319 154.538 399.929 154.929C399.538 155.319 399.538 155.953 399.929 156.343L405.586 162L399.929 167.657C399.538 168.047 399.538 168.681 399.929 169.071C400.319 169.462 400.953 169.462 401.343 169.071L407.707 162.707ZM366 163H407V161H366V163Z" fill="#24870C"/>
<path d="M349 223H348V224H349V223ZM408.207 223.707C408.598 223.317 408.598 222.683 408.207 222.293L401.843 215.929C401.453 215.538 400.819 215.538 400.429 215.929C400.038 216.319 400.038 216.953 400.429 217.343L406.086 223L400.429 228.657C400.038 229.047 400.038 229.681 400.429 230.071C400.819 230.462 401.453 230.462 401.843 230.071L408.207 223.707ZM348 176V223H350V176H348ZM349 224H407.5V222H349V224Z" fill="#24870C"/>
<path d="M494.856 170.152H547.848V176.68H502.824V211.624H494.856V170.152ZM494.856 209.32H548.712V215.752H494.856V209.32Z" fill="black"/>
<path d="M551.707 160.707C552.098 160.317 552.098 159.683 551.707 159.293L545.343 152.929C544.953 152.538 544.319 152.538 543.929 152.929C543.538 153.319 543.538 153.953 543.929 154.343L549.586 160L543.929 165.657C543.538 166.047 543.538 166.681 543.929 167.071C544.319 167.462 544.953 167.462 545.343 167.071L551.707 160.707ZM513 161H551V159H513V161Z" fill="#24870C"/>
<path d="M491 223.5H490V224.5H491V223.5ZM553.707 224.207C554.098 223.817 554.098 223.183 553.707 222.793L547.343 216.429C546.953 216.038 546.319 216.038 545.929 216.429C545.538 216.819 545.538 217.453 545.929 217.843L551.586 223.5L545.929 229.157C545.538 229.547 545.538 230.181 545.929 230.571C546.319 230.962 546.953 230.962 547.343 230.571L553.707 224.207ZM490 168V223.5H492V168H490ZM491 224.5H553V222.5H491V224.5Z" fill="#24870C"/>
<path d="M505.31 156.727V164H504.429V157.651H504.386L502.611 158.83V157.935L504.429 156.727H505.31Z" fill="black"/>
<path d="M487.753 164V163.361L490.153 160.733C490.435 160.425 490.667 160.158 490.849 159.93C491.032 159.701 491.167 159.485 491.254 159.284C491.344 159.08 491.389 158.867 491.389 158.645C491.389 158.389 491.328 158.168 491.205 157.981C491.084 157.794 490.918 157.649 490.707 157.548C490.497 157.446 490.26 157.395 489.997 157.395C489.718 157.395 489.474 157.453 489.266 157.569C489.06 157.683 488.9 157.842 488.786 158.048C488.675 158.254 488.619 158.496 488.619 158.773H487.781C487.781 158.347 487.879 157.973 488.076 157.651C488.272 157.329 488.54 157.078 488.879 156.898C489.219 156.718 489.602 156.628 490.026 156.628C490.452 156.628 490.829 156.718 491.158 156.898C491.487 157.078 491.746 157.32 491.933 157.626C492.12 157.931 492.213 158.271 492.213 158.645C492.213 158.912 492.165 159.174 492.067 159.43C491.973 159.683 491.807 159.966 491.57 160.278C491.336 160.589 491.01 160.967 490.594 161.415L488.96 163.162V163.219H492.341V164H487.753Z" fill="black"/>
<path d="M633.664 169.192H641.44V185.128H679.456V169.192H687.424V216.04H633.664V169.192ZM641.44 192.136V209.032H679.456V192.136H641.44Z" fill="black"/>
<path d="M651.21 177.099C650.741 177.099 650.324 177.019 649.957 176.858C649.592 176.697 649.302 176.473 649.087 176.187C648.874 175.898 648.758 175.563 648.739 175.182H649.634C649.652 175.416 649.733 175.619 649.875 175.789C650.017 175.957 650.203 176.087 650.433 176.18C650.662 176.272 650.917 176.318 651.196 176.318C651.509 176.318 651.786 176.264 652.027 176.155C652.268 176.046 652.458 175.894 652.595 175.7C652.732 175.506 652.801 175.281 652.801 175.026C652.801 174.758 652.735 174.522 652.602 174.319C652.47 174.113 652.276 173.952 652.02 173.836C651.764 173.72 651.452 173.662 651.082 173.662H650.5V172.881H651.082C651.371 172.881 651.625 172.829 651.842 172.724C652.063 172.62 652.234 172.473 652.357 172.284C652.483 172.095 652.545 171.872 652.545 171.616C652.545 171.37 652.491 171.156 652.382 170.974C652.273 170.791 652.119 170.649 651.92 170.548C651.724 170.446 651.492 170.395 651.224 170.395C650.973 170.395 650.737 170.441 650.514 170.533C650.294 170.623 650.114 170.755 649.974 170.928C649.835 171.098 649.759 171.304 649.747 171.545H648.895C648.909 171.164 649.024 170.83 649.239 170.544C649.455 170.255 649.737 170.03 650.085 169.869C650.435 169.708 650.82 169.628 651.239 169.628C651.688 169.628 652.074 169.719 652.396 169.901C652.718 170.081 652.966 170.319 653.138 170.615C653.311 170.911 653.398 171.231 653.398 171.574C653.398 171.983 653.29 172.333 653.075 172.621C652.862 172.91 652.571 173.11 652.205 173.222V173.278C652.664 173.354 653.022 173.549 653.281 173.864C653.539 174.177 653.668 174.564 653.668 175.026C653.668 175.421 653.56 175.776 653.344 176.091C653.131 176.403 652.84 176.65 652.471 176.83C652.102 177.009 651.681 177.099 651.21 177.099Z" fill="black"/>
<path d="M625.31 161.727V169H624.429V162.651H624.386L622.611 163.83V162.935L624.429 161.727H625.31Z" fill="black"/>
<path d="M693.753 169V168.361L696.153 165.733C696.435 165.425 696.667 165.158 696.849 164.93C697.032 164.701 697.167 164.485 697.254 164.284C697.344 164.08 697.389 163.867 697.389 163.645C697.389 163.389 697.328 163.168 697.205 162.981C697.084 162.794 696.918 162.649 696.707 162.548C696.497 162.446 696.26 162.395 695.997 162.395C695.718 162.395 695.474 162.453 695.266 162.569C695.06 162.683 694.9 162.842 694.786 163.048C694.675 163.254 694.619 163.496 694.619 163.773H693.781C693.781 163.347 693.879 162.973 694.076 162.651C694.272 162.329 694.54 162.078 694.879 161.898C695.219 161.718 695.602 161.628 696.026 161.628C696.452 161.628 696.829 161.718 697.158 161.898C697.487 162.078 697.746 162.32 697.933 162.626C698.12 162.931 698.213 163.271 698.213 163.645C698.213 163.912 698.165 164.174 698.067 164.43C697.973 164.683 697.807 164.966 697.57 165.278C697.336 165.589 697.01 165.967 696.594 166.415L694.96 168.162V168.219H698.341V169H693.753Z" fill="black"/>
<path d="M624.293 217.707C624.683 218.098 625.317 218.098 625.707 217.707L632.071 211.343C632.462 210.953 632.462 210.319 632.071 209.929C631.681 209.538 631.047 209.538 630.657 209.929L625 215.586L619.343 209.929C618.953 209.538 618.319 209.538 617.929 209.929C617.538 210.319 617.538 210.953 617.929 211.343L624.293 217.707ZM624 177V217H626V177H624Z" fill="#24870C"/>
<path d="M677.707 224.707C678.098 224.317 678.098 223.683 677.707 223.293L671.343 216.929C670.953 216.538 670.319 216.538 669.929 216.929C669.538 217.319 669.538 217.953 669.929 218.343L675.586 224L669.929 229.657C669.538 230.047 669.538 230.681 669.929 231.071C670.319 231.462 670.953 231.462 671.343 231.071L677.707 224.707ZM645 225H677V223H645V225Z" fill="#24870C"/>
<path d="M635.582 225.509V224.784L638.778 219.727H639.304V220.849H638.949L636.534 224.67V224.727H640.838V225.509H635.582ZM639.006 227V225.288V224.951V219.727H639.844V227H639.006Z" fill="black"/>
<path d="M695.293 217.707C695.683 218.098 696.317 218.098 696.707 217.707L703.071 211.343C703.462 210.953 703.462 210.319 703.071 209.929C702.681 209.538 702.047 209.538 701.657 209.929L696 215.586L690.343 209.929C689.953 209.538 689.319 209.538 688.929 209.929C688.538 210.319 688.538 210.953 688.929 211.343L695.293 217.707ZM695 177V217H697V177H695Z" fill="#24870C"/>
<path d="M677.707 181.707C678.098 181.317 678.098 180.683 677.707 180.293L671.343 173.929C670.953 173.538 670.319 173.538 669.929 173.929C669.538 174.319 669.538 174.953 669.929 175.343L675.586 181L669.929 186.657C669.538 187.047 669.538 187.681 669.929 188.071C670.319 188.462 670.953 188.462 671.343 188.071L677.707 181.707ZM645 182H677V180H645V182Z" fill="#24870C"/>
<path d="M100.896 297.016H107.424V307.576C107.424 312.12 106.72 316.28 105.312 320.056C103.968 323.768 102.048 327.096 99.552 330.04C97.056 332.984 94.112 335.512 90.72 337.624C87.328 339.672 83.584 341.304 79.488 342.52L75.648 336.28C79.36 335.32 82.752 333.976 85.824 332.248C88.896 330.456 91.552 328.344 93.792 325.912C96.096 323.416 97.856 320.632 99.072 317.56C100.288 314.488 100.896 311.16 100.896 307.576V297.016ZM102.336 297.016H108.864V307.576C108.864 311.16 109.472 314.488 110.688 317.56C111.968 320.632 113.728 323.416 115.968 325.912C118.208 328.344 120.864 330.456 123.936 332.248C127.008 333.976 130.4 335.32 134.112 336.28L130.272 342.52C126.176 341.304 122.432 339.672 119.04 337.624C115.648 335.512 112.704 332.984 110.208 330.04C107.712 327.096 105.76 323.768 104.352 320.056C103.008 316.28 102.336 312.12 102.336 307.576V297.016ZM78.144 295.288H131.808V301.816H78.144V295.288Z" fill="black"/>
<path d="M79.3097 277.727V285H78.429V278.651H78.3864L76.6108 279.83V278.935L78.429 277.727H79.3097Z" fill="black"/>
<path d="M124.21 313.099C123.741 313.099 123.324 313.019 122.957 312.858C122.592 312.697 122.302 312.473 122.087 312.187C121.874 311.898 121.758 311.563 121.739 311.182H122.634C122.652 311.416 122.733 311.619 122.875 311.789C123.017 311.957 123.203 312.087 123.433 312.18C123.662 312.272 123.917 312.318 124.196 312.318C124.509 312.318 124.786 312.264 125.027 312.155C125.268 312.046 125.458 311.894 125.595 311.7C125.732 311.506 125.801 311.281 125.801 311.026C125.801 310.758 125.735 310.522 125.602 310.319C125.47 310.113 125.276 309.952 125.02 309.836C124.764 309.72 124.452 309.662 124.082 309.662H123.5V308.881H124.082C124.371 308.881 124.625 308.829 124.842 308.724C125.063 308.62 125.234 308.473 125.357 308.284C125.483 308.095 125.545 307.872 125.545 307.616C125.545 307.37 125.491 307.156 125.382 306.974C125.273 306.791 125.119 306.649 124.92 306.548C124.724 306.446 124.492 306.395 124.224 306.395C123.973 306.395 123.737 306.441 123.514 306.533C123.294 306.623 123.114 306.755 122.974 306.928C122.835 307.098 122.759 307.304 122.747 307.545H121.895C121.909 307.164 122.024 306.83 122.239 306.544C122.455 306.255 122.737 306.03 123.085 305.869C123.435 305.708 123.82 305.628 124.239 305.628C124.688 305.628 125.074 305.719 125.396 305.901C125.718 306.081 125.966 306.319 126.138 306.615C126.311 306.911 126.398 307.231 126.398 307.574C126.398 307.983 126.29 308.333 126.075 308.621C125.862 308.91 125.571 309.11 125.205 309.222V309.278C125.664 309.354 126.022 309.549 126.281 309.864C126.539 310.177 126.668 310.564 126.668 311.026C126.668 311.421 126.56 311.776 126.344 312.091C126.131 312.403 125.84 312.65 125.471 312.83C125.102 313.009 124.681 313.099 124.21 313.099Z" fill="black"/>
<path d="M80.7528 313V312.361L83.1534 309.733C83.4351 309.425 83.6671 309.158 83.8494 308.93C84.0317 308.701 84.1667 308.485 84.2543 308.284C84.3442 308.08 84.3892 307.867 84.3892 307.645C84.3892 307.389 84.3277 307.168 84.2045 306.981C84.0838 306.794 83.9181 306.649 83.7074 306.548C83.4967 306.446 83.2599 306.395 82.9972 306.395C82.7178 306.395 82.474 306.453 82.2656 306.569C82.0597 306.683 81.8999 306.842 81.7862 307.048C81.675 307.254 81.6193 307.496 81.6193 307.773H80.7812C80.7812 307.347 80.8795 306.973 81.076 306.651C81.2725 306.329 81.54 306.078 81.8786 305.898C82.2195 305.718 82.6018 305.628 83.0256 305.628C83.4517 305.628 83.8293 305.718 84.1584 305.898C84.4875 306.078 84.7455 306.32 84.9325 306.626C85.1196 306.931 85.2131 307.271 85.2131 307.645C85.2131 307.912 85.1645 308.174 85.0675 308.43C84.9728 308.683 84.8071 308.966 84.5703 309.278C84.3359 309.589 84.0104 309.967 83.5938 310.415L81.9602 312.162V312.219H85.3409V313H80.7528Z" fill="black"/>
<path d="M119.629 317.434L118.631 317.508L118.637 317.585L118.655 317.661L119.629 317.434ZM121.2 324.181L120.226 324.408L120.27 324.595L120.38 324.753L121.2 324.181ZM124.029 328.229L123.209 328.802L123.307 328.942L123.447 329.042L124.029 328.229ZM131.571 333.627L130.989 334.44L131.103 334.521L131.235 334.568L131.571 333.627ZM141.428 337.904C141.927 337.668 142.14 337.072 141.904 336.572L138.056 328.437C137.82 327.937 137.224 327.724 136.724 327.96C136.225 328.196 136.012 328.792 136.248 329.292L139.668 336.524L132.437 339.944C131.937 340.18 131.724 340.776 131.96 341.276C132.196 341.775 132.792 341.988 133.292 341.752L141.428 337.904ZM118.003 309.074L118.631 317.508L120.626 317.359L119.997 308.926L118.003 309.074ZM118.655 317.661L120.226 324.408L122.174 323.954L120.603 317.207L118.655 317.661ZM120.38 324.753L123.209 328.802L124.848 327.656L122.02 323.608L120.38 324.753ZM123.447 329.042L127.218 331.741L128.382 330.114L124.611 327.416L123.447 329.042ZM127.218 331.741L130.989 334.44L132.153 332.813L128.382 330.114L127.218 331.741ZM131.235 334.568L140.663 337.942L141.337 336.058L131.908 332.685L131.235 334.568Z" fill="#24870C"/>
<path d="M90.3714 317.434L91.3687 317.508L91.3629 317.585L91.3454 317.661L90.3714 317.434ZM88.8 324.181L89.7739 324.408L89.7302 324.595L89.6197 324.753L88.8 324.181ZM85.9714 328.229L86.7912 328.802L86.6929 328.942L86.5534 329.042L85.9714 328.229ZM78.4286 333.627L79.0105 334.44L78.8969 334.521L78.7655 334.568L78.4286 333.627ZM68.5724 337.904C68.0732 337.668 67.8599 337.072 68.096 336.572L71.9441 328.437C72.1802 327.937 72.7764 327.724 73.2756 327.96C73.7749 328.196 73.9882 328.792 73.7521 329.292L70.3315 336.524L77.5634 339.944C78.0627 340.18 78.276 340.776 78.0399 341.276C77.8037 341.775 77.2076 341.988 76.7083 341.752L68.5724 337.904ZM91.9972 309.074L91.3687 317.508L89.3742 317.359L90.0028 308.926L91.9972 309.074ZM91.3454 317.661L89.7739 324.408L87.8261 323.954L89.3975 317.207L91.3454 317.661ZM89.6197 324.753L86.7912 328.802L85.1517 327.656L87.9803 323.608L89.6197 324.753ZM86.5534 329.042L82.7819 331.741L81.6181 330.114L85.3895 327.416L86.5534 329.042ZM82.7819 331.741L79.0105 334.44L77.8466 332.813L81.6181 330.114L82.7819 331.741ZM78.7655 334.568L69.3369 337.942L68.6631 336.058L78.0917 332.685L78.7655 334.568Z" fill="#24870C"/>
<path d="M134.707 285.707C135.098 285.317 135.098 284.683 134.707 284.293L128.343 277.929C127.953 277.538 127.319 277.538 126.929 277.929C126.538 278.319 126.538 278.953 126.929 279.343L132.586 285L126.929 290.657C126.538 291.047 126.538 291.681 126.929 292.071C127.319 292.462 127.953 292.462 128.343 292.071L134.707 285.707ZM87 286H134V284H87V286Z" fill="#24870C"/>
<path d="M215.608 296.152H271.576V302.68H215.608V296.152ZM214.36 335.896H272.92V342.424H214.36V335.896ZM226.84 301.336H234.808V338.488H226.84V301.336ZM252.472 301.336H260.44V338.488H252.472V301.336Z" fill="black"/>
<path d="M276.707 285.707C277.098 285.317 277.098 284.683 276.707 284.293L270.343 277.929C269.953 277.538 269.319 277.538 268.929 277.929C268.538 278.319 268.538 278.953 268.929 279.343L274.586 285L268.929 290.657C268.538 291.047 268.538 291.681 268.929 292.071C269.319 292.462 269.953 292.462 270.343 292.071L276.707 285.707ZM229 286H276V284H229V286Z" fill="#24870C"/>
<path d="M276.707 347.707C277.098 347.317 277.098 346.683 276.707 346.293L270.343 339.929C269.953 339.538 269.319 339.538 268.929 339.929C268.538 340.319 268.538 340.953 268.929 341.343L274.586 347L268.929 352.657C268.538 353.047 268.538 353.681 268.929 354.071C269.319 354.462 269.953 354.462 270.343 354.071L276.707 347.707ZM229 348H276V346H229V348Z" fill="#24870C"/>
<path d="M267.793 333.707C268.183 334.098 268.817 334.098 269.207 333.707L275.571 327.343C275.962 326.953 275.962 326.319 275.571 325.929C275.181 325.538 274.547 325.538 274.157 325.929L268.5 331.586L262.843 325.929C262.453 325.538 261.819 325.538 261.429 325.929C261.038 326.319 261.038 326.953 261.429 327.343L267.793 333.707ZM267.5 303V333H269.5V303H267.5Z" fill="#24870C"/>
<path d="M218.293 333.707C218.683 334.098 219.317 334.098 219.707 333.707L226.071 327.343C226.462 326.953 226.462 326.319 226.071 325.929C225.681 325.538 225.047 325.538 224.657 325.929L219 331.586L213.343 325.929C212.953 325.538 212.319 325.538 211.929 325.929C211.538 326.319 211.538 326.953 211.929 327.343L218.293 333.707ZM218 303V333H220V303H218Z" fill="#24870C"/>
<path d="M215.582 349.509V348.784L218.778 343.727H219.304V344.849H218.949L216.534 348.67V348.727H220.838V349.509H215.582ZM219.006 351V349.288V348.951V343.727H219.844V351H219.006Z" fill="black"/>
<path d="M277.21 313.099C276.741 313.099 276.324 313.019 275.957 312.858C275.592 312.697 275.302 312.473 275.087 312.187C274.874 311.898 274.758 311.563 274.739 311.182H275.634C275.652 311.416 275.733 311.619 275.875 311.789C276.017 311.957 276.203 312.087 276.433 312.18C276.662 312.272 276.917 312.318 277.196 312.318C277.509 312.318 277.786 312.264 278.027 312.155C278.268 312.046 278.458 311.894 278.595 311.7C278.732 311.506 278.801 311.281 278.801 311.026C278.801 310.758 278.735 310.522 278.602 310.319C278.47 310.113 278.276 309.952 278.02 309.836C277.764 309.72 277.452 309.662 277.082 309.662H276.5V308.881H277.082C277.371 308.881 277.625 308.829 277.842 308.724C278.063 308.62 278.234 308.473 278.357 308.284C278.483 308.095 278.545 307.872 278.545 307.616C278.545 307.37 278.491 307.156 278.382 306.974C278.273 306.791 278.119 306.649 277.92 306.548C277.724 306.446 277.492 306.395 277.224 306.395C276.973 306.395 276.737 306.441 276.514 306.533C276.294 306.623 276.114 306.755 275.974 306.928C275.835 307.098 275.759 307.304 275.747 307.545H274.895C274.909 307.164 275.024 306.83 275.239 306.544C275.455 306.255 275.737 306.03 276.085 305.869C276.435 305.708 276.82 305.628 277.239 305.628C277.688 305.628 278.074 305.719 278.396 305.901C278.718 306.081 278.966 306.319 279.138 306.615C279.311 306.911 279.398 307.231 279.398 307.574C279.398 307.983 279.29 308.333 279.075 308.621C278.862 308.91 278.571 309.11 278.205 309.222V309.278C278.664 309.354 279.022 309.549 279.281 309.864C279.539 310.177 279.668 310.564 279.668 311.026C279.668 311.421 279.56 311.776 279.344 312.091C279.131 312.403 278.84 312.65 278.471 312.83C278.102 313.009 277.681 313.099 277.21 313.099Z" fill="black"/>
<path d="M219.31 281.727V289H218.429V282.651H218.386L216.611 283.83V282.935L218.429 281.727H219.31Z" fill="black"/>
<path d="M207.753 313V312.361L210.153 309.733C210.435 309.425 210.667 309.158 210.849 308.93C211.032 308.701 211.167 308.485 211.254 308.284C211.344 308.08 211.389 307.867 211.389 307.645C211.389 307.389 211.328 307.168 211.205 306.981C211.084 306.794 210.918 306.649 210.707 306.548C210.497 306.446 210.26 306.395 209.997 306.395C209.718 306.395 209.474 306.453 209.266 306.569C209.06 306.683 208.9 306.842 208.786 307.048C208.675 307.254 208.619 307.496 208.619 307.773H207.781C207.781 307.347 207.879 306.973 208.076 306.651C208.272 306.329 208.54 306.078 208.879 305.898C209.219 305.718 209.602 305.628 210.026 305.628C210.452 305.628 210.829 305.718 211.158 305.898C211.487 306.078 211.746 306.32 211.933 306.626C212.12 306.931 212.213 307.271 212.213 307.645C212.213 307.912 212.165 308.174 212.067 308.43C211.973 308.683 211.807 308.966 211.57 309.278C211.336 309.589 211.01 309.967 210.594 310.415L208.96 312.162V312.219H212.341V313H207.753Z" fill="black"/>
<path d="M377.648 308.92H384.464V312.376C384.464 316.6 383.792 320.472 382.448 323.992C381.104 327.448 379.184 330.52 376.688 333.208C374.192 335.896 371.248 338.2 367.856 340.12C364.528 342.04 360.848 343.512 356.816 344.536L352.976 338.296C356.688 337.4 360.048 336.184 363.056 334.648C366.064 333.048 368.656 331.128 370.832 328.888C373.008 326.648 374.672 324.152 375.824 321.4C377.04 318.648 377.648 315.64 377.648 312.376V308.92ZM380.144 308.92H386.96V312.376C386.96 315.64 387.536 318.648 388.688 321.4C389.904 324.152 391.6 326.648 393.776 328.888C396.016 331.128 398.64 333.048 401.648 334.648C404.656 336.184 407.984 337.4 411.632 338.296L407.888 344.536C403.856 343.512 400.144 342.04 396.752 340.12C393.36 338.2 390.416 335.896 387.92 333.208C385.488 330.52 383.568 327.448 382.16 323.992C380.816 320.472 380.144 316.6 380.144 312.376V308.92ZM355.376 303.256H409.328V309.88H355.376V303.256ZM378.416 290.68H386.384V306.52H378.416V290.68Z" fill="black"/>
<path d="M392.771 319.434L391.776 319.525L391.784 319.618L391.81 319.709L392.771 319.434ZM394.7 326.181L393.739 326.456L393.799 326.666L393.941 326.832L394.7 326.181ZM398.171 330.229L397.412 330.88L397.522 331.008L397.668 331.093L398.171 330.229ZM402.8 332.928L402.296 333.792L402.8 332.928ZM407.429 335.627L406.925 336.49L407.031 336.552L407.149 336.587L407.429 335.627ZM419.481 339.877C419.965 339.611 420.142 339.003 419.877 338.519L415.548 330.628C415.283 330.144 414.675 329.967 414.191 330.232C413.706 330.498 413.529 331.106 413.795 331.59L417.642 338.604L410.628 342.452C410.144 342.717 409.967 343.325 410.232 343.809C410.498 344.294 411.106 344.471 411.59 344.205L419.481 339.877ZM391.004 311.091L391.776 319.525L393.767 319.343L392.996 310.909L391.004 311.091ZM391.81 319.709L393.739 326.456L395.661 325.906L393.733 319.159L391.81 319.709ZM393.941 326.832L397.412 330.88L398.931 329.578L395.459 325.53L393.941 326.832ZM397.668 331.093L402.296 333.792L403.304 332.064L398.675 329.365L397.668 331.093ZM402.296 333.792L406.925 336.49L407.932 334.763L403.304 332.064L402.296 333.792ZM407.149 336.587L418.72 339.96L419.28 338.04L407.708 334.666L407.149 336.587Z" fill="#24870C"/>
<path d="M372.229 319.434L373.224 319.525L373.216 319.618L373.19 319.709L372.229 319.434ZM370.3 326.181L371.261 326.456L371.201 326.666L371.059 326.832L370.3 326.181ZM366.829 330.229L367.588 330.88L367.478 331.008L367.332 331.093L366.829 330.229ZM362.2 332.928L362.704 333.792L362.2 332.928ZM357.571 335.627L358.075 336.49L357.969 336.552L357.851 336.587L357.571 335.627ZM345.519 339.877C345.035 339.611 344.858 339.003 345.123 338.519L349.452 330.628C349.717 330.144 350.325 329.967 350.809 330.232C351.294 330.498 351.471 331.106 351.205 331.59L347.358 338.604L354.372 342.452C354.856 342.717 355.033 343.325 354.768 343.809C354.502 344.294 353.894 344.471 353.41 344.205L345.519 339.877ZM373.996 311.091L373.224 319.525L371.233 319.343L372.004 310.909L373.996 311.091ZM373.19 319.709L371.261 326.456L369.339 325.906L371.267 319.159L373.19 319.709ZM371.059 326.832L367.588 330.88L366.069 329.578L369.541 325.53L371.059 326.832ZM367.332 331.093L362.704 333.792L361.696 332.064L366.325 329.365L367.332 331.093ZM362.704 333.792L358.075 336.49L357.068 334.763L361.696 332.064L362.704 333.792ZM357.851 336.587L346.28 339.96L345.72 338.04L357.292 334.666L357.851 336.587Z" fill="#24870C"/>
<path d="M388.293 289.707C388.683 290.098 389.317 290.098 389.707 289.707L396.071 283.343C396.462 282.953 396.462 282.319 396.071 281.929C395.681 281.538 395.047 281.538 394.657 281.929L389 287.586L383.343 281.929C382.953 281.538 382.319 281.538 381.929 281.929C381.538 282.319 381.538 282.953 381.929 283.343L388.293 289.707ZM388 279V289H390V279H388Z" fill="#24870C"/>
<path d="M406.707 295.707C407.098 295.317 407.098 294.683 406.707 294.293L400.343 287.929C399.953 287.538 399.319 287.538 398.929 287.929C398.538 288.319 398.538 288.953 398.929 289.343L404.586 295L398.929 300.657C398.538 301.047 398.538 301.681 398.929 302.071C399.319 302.462 399.953 302.462 400.343 302.071L406.707 295.707ZM366 296H406V294H366V296Z" fill="#24870C"/>
<path d="M356.753 299V298.361L359.153 295.733C359.435 295.425 359.667 295.158 359.849 294.93C360.032 294.701 360.167 294.485 360.254 294.284C360.344 294.08 360.389 293.867 360.389 293.645C360.389 293.389 360.328 293.168 360.205 292.981C360.084 292.794 359.918 292.649 359.707 292.548C359.497 292.446 359.26 292.395 358.997 292.395C358.718 292.395 358.474 292.453 358.266 292.569C358.06 292.683 357.9 292.842 357.786 293.048C357.675 293.254 357.619 293.496 357.619 293.773H356.781C356.781 293.347 356.879 292.973 357.076 292.651C357.272 292.329 357.54 292.078 357.879 291.898C358.219 291.718 358.602 291.628 359.026 291.628C359.452 291.628 359.829 291.718 360.158 291.898C360.487 292.078 360.746 292.32 360.933 292.626C361.12 292.931 361.213 293.271 361.213 293.645C361.213 293.912 361.165 294.174 361.067 294.43C360.973 294.683 360.807 294.966 360.57 295.278C360.336 295.589 360.01 295.967 359.594 296.415L357.96 298.162V298.219H361.341V299H356.753Z" fill="black"/>
<path d="M366.21 321.099C365.741 321.099 365.324 321.019 364.957 320.858C364.592 320.697 364.302 320.473 364.087 320.187C363.874 319.898 363.758 319.563 363.739 319.182H364.634C364.652 319.416 364.733 319.619 364.875 319.789C365.017 319.957 365.203 320.087 365.433 320.18C365.662 320.272 365.917 320.318 366.196 320.318C366.509 320.318 366.786 320.264 367.027 320.155C367.268 320.046 367.458 319.894 367.595 319.7C367.732 319.506 367.801 319.281 367.801 319.026C367.801 318.758 367.735 318.522 367.602 318.319C367.47 318.113 367.276 317.952 367.02 317.836C366.764 317.72 366.452 317.662 366.082 317.662H365.5V316.881H366.082C366.371 316.881 366.625 316.829 366.842 316.724C367.063 316.62 367.234 316.473 367.357 316.284C367.483 316.095 367.545 315.872 367.545 315.616C367.545 315.37 367.491 315.156 367.382 314.974C367.273 314.791 367.119 314.649 366.92 314.548C366.724 314.446 366.492 314.395 366.224 314.395C365.973 314.395 365.737 314.441 365.514 314.533C365.294 314.623 365.114 314.755 364.974 314.928C364.835 315.098 364.759 315.304 364.747 315.545H363.895C363.909 315.164 364.024 314.83 364.239 314.544C364.455 314.255 364.737 314.03 365.085 313.869C365.435 313.708 365.82 313.628 366.239 313.628C366.688 313.628 367.074 313.719 367.396 313.901C367.718 314.081 367.966 314.319 368.138 314.615C368.311 314.911 368.398 315.231 368.398 315.574C368.398 315.983 368.29 316.333 368.075 316.621C367.862 316.91 367.571 317.11 367.205 317.222V317.278C367.664 317.354 368.022 317.549 368.281 317.864C368.539 318.177 368.668 318.564 368.668 319.026C368.668 319.421 368.56 319.776 368.344 320.091C368.131 320.403 367.84 320.65 367.471 320.83C367.102 321.009 366.681 321.099 366.21 321.099Z" fill="black"/>
<path d="M389.31 269.727V277H388.429V270.651H388.386L386.611 271.83V270.935L388.429 269.727H389.31Z" fill="black"/>
<path d="M395.582 319.509V318.784L398.778 313.727H399.304V314.849H398.949L396.534 318.67V318.727H400.838V319.509H395.582ZM399.006 321V319.288V318.951V313.727H399.844V321H399.006Z" fill="black"/>
<path d="M492.84 301.72H550.44V308.344H492.84V301.72ZM521.64 314.488C525.8 314.488 529.48 315.192 532.68 316.6C535.88 317.944 538.408 319.8 540.264 322.168C542.12 324.536 543.048 327.256 543.048 330.328C543.048 333.464 542.12 336.248 540.264 338.68C538.408 341.048 535.88 342.904 532.68 344.248C529.48 345.592 525.8 346.264 521.64 346.264C517.608 346.264 513.96 345.592 510.696 344.248C507.496 342.904 504.968 341.048 503.112 338.68C501.256 336.248 500.328 333.464 500.328 330.328C500.328 327.256 501.256 324.536 503.112 322.168C504.968 319.8 507.496 317.944 510.696 316.6C513.96 315.192 517.608 314.488 521.64 314.488ZM521.736 321.208C519.176 321.208 516.904 321.592 514.92 322.36C512.936 323.128 511.368 324.216 510.216 325.624C509.064 326.968 508.488 328.536 508.488 330.328C508.488 332.12 509.064 333.72 510.216 335.128C511.368 336.472 512.936 337.56 514.92 338.392C516.904 339.16 519.176 339.544 521.736 339.544C524.232 339.544 526.472 339.16 528.456 338.392C530.44 337.56 532.008 336.472 533.16 335.128C534.312 333.72 534.888 332.12 534.888 330.328C534.888 328.536 534.312 326.968 533.16 325.624C532.008 324.216 530.44 323.128 528.456 322.36C526.472 321.592 524.232 321.208 521.736 321.208ZM517.704 290.104H525.672V307.192H517.704V290.104Z" fill="black"/>
<path d="M538.13 313.55L538.782 312.792L538.717 312.736L538.644 312.692L538.13 313.55ZM542.087 316.95L542.81 316.259L542.776 316.224L542.739 316.192L542.087 316.95ZM545.739 320.775L546.673 320.418L546.601 320.23L546.462 320.084L545.739 320.775ZM548.174 327.15L549.15 326.935L549.135 326.862L549.108 326.793L548.174 327.15ZM549.391 332.675L550.387 332.58L550.381 332.519L550.368 332.46L549.391 332.675ZM550 339.05L550.995 339.152L551.005 339.053L550.995 338.955L550 339.05ZM548.616 345.631C548.965 346.06 549.595 346.124 550.023 345.775L557.001 340.092C557.43 339.743 557.494 339.114 557.145 338.685C556.797 338.257 556.167 338.193 555.738 338.541L549.535 343.593L544.483 337.39C544.135 336.962 543.505 336.897 543.077 337.246C542.648 337.595 542.584 338.225 542.933 338.653L548.616 345.631ZM533.87 311L534.383 310.142L534.146 310H533.87V311ZM537.479 314.308L541.435 317.708L542.739 316.192L538.782 312.792L537.479 314.308ZM541.364 317.641L545.016 321.466L546.462 320.084L542.81 316.259L541.364 317.641ZM544.805 321.132L547.24 327.507L549.108 326.793L546.673 320.418L544.805 321.132ZM547.197 327.365L548.415 332.89L550.368 332.46L549.15 326.935L547.197 327.365ZM548.396 332.77L549.005 339.145L550.995 338.955L550.387 332.58L548.396 332.77ZM549.005 338.948L548.396 344.898L550.386 345.102L550.995 339.152L549.005 338.948ZM529 312H533.87V310H529V312ZM533.356 311.858L537.617 314.408L538.644 312.692L534.383 310.142L533.356 311.858Z" fill="#24870C"/>
<path d="M531.293 289.707C531.683 290.098 532.317 290.098 532.707 289.707L539.071 283.343C539.462 282.953 539.462 282.319 539.071 281.929C538.681 281.538 538.047 281.538 537.657 281.929L532 287.586L526.343 281.929C525.953 281.538 525.319 281.538 524.929 281.929C524.538 282.319 524.538 282.953 524.929 283.343L531.293 289.707ZM531 279V289H533V279H531Z" fill="#24870C"/>
<path d="M546.707 295.707C547.098 295.317 547.098 294.683 546.707 294.293L540.343 287.929C539.953 287.538 539.319 287.538 538.929 287.929C538.538 288.319 538.538 288.953 538.929 289.343L544.586 295L538.929 300.657C538.538 301.047 538.538 301.681 538.929 302.071C539.319 302.462 539.953 302.462 540.343 302.071L546.707 295.707ZM506 296H546V294H506V296Z" fill="#24870C"/>
<path d="M495.753 299V298.361L498.153 295.733C498.435 295.425 498.667 295.158 498.849 294.93C499.032 294.701 499.167 294.485 499.254 294.284C499.344 294.08 499.389 293.867 499.389 293.645C499.389 293.389 499.328 293.168 499.205 292.981C499.084 292.794 498.918 292.649 498.707 292.548C498.497 292.446 498.26 292.395 497.997 292.395C497.718 292.395 497.474 292.453 497.266 292.569C497.06 292.683 496.9 292.842 496.786 293.048C496.675 293.254 496.619 293.496 496.619 293.773H495.781C495.781 293.347 495.879 292.973 496.076 292.651C496.272 292.329 496.54 292.078 496.879 291.898C497.219 291.718 497.602 291.628 498.026 291.628C498.452 291.628 498.829 291.718 499.158 291.898C499.487 292.078 499.746 292.32 499.933 292.626C500.12 292.931 500.213 293.271 500.213 293.645C500.213 293.912 500.165 294.174 500.067 294.43C499.973 294.683 499.807 294.966 499.57 295.278C499.336 295.589 499.01 295.967 498.594 296.415L496.96 298.162V298.219H500.341V299H495.753Z" fill="black"/>
<path d="M553.21 321.099C552.741 321.099 552.324 321.019 551.957 320.858C551.592 320.697 551.302 320.473 551.087 320.187C550.874 319.898 550.758 319.563 550.739 319.182H551.634C551.652 319.416 551.733 319.619 551.875 319.789C552.017 319.957 552.203 320.087 552.433 320.18C552.662 320.272 552.917 320.318 553.196 320.318C553.509 320.318 553.786 320.264 554.027 320.155C554.268 320.046 554.458 319.894 554.595 319.7C554.732 319.506 554.801 319.281 554.801 319.026C554.801 318.758 554.735 318.522 554.602 318.319C554.47 318.113 554.276 317.952 554.02 317.836C553.764 317.72 553.452 317.662 553.082 317.662H552.5V316.881H553.082C553.371 316.881 553.625 316.829 553.842 316.724C554.063 316.62 554.234 316.473 554.357 316.284C554.483 316.095 554.545 315.872 554.545 315.616C554.545 315.37 554.491 315.156 554.382 314.974C554.273 314.791 554.119 314.649 553.92 314.548C553.724 314.446 553.492 314.395 553.224 314.395C552.973 314.395 552.737 314.441 552.514 314.533C552.294 314.623 552.114 314.755 551.974 314.928C551.835 315.098 551.759 315.304 551.747 315.545H550.895C550.909 315.164 551.024 314.83 551.239 314.544C551.455 314.255 551.737 314.03 552.085 313.869C552.435 313.708 552.82 313.628 553.239 313.628C553.688 313.628 554.074 313.719 554.396 313.901C554.718 314.081 554.966 314.319 555.138 314.615C555.311 314.911 555.398 315.231 555.398 315.574C555.398 315.983 555.29 316.333 555.075 316.621C554.862 316.91 554.571 317.11 554.205 317.222V317.278C554.664 317.354 555.022 317.549 555.281 317.864C555.539 318.177 555.668 318.564 555.668 319.026C555.668 319.421 555.56 319.776 555.344 320.091C555.131 320.403 554.84 320.65 554.471 320.83C554.102 321.009 553.681 321.099 553.21 321.099Z" fill="black"/>
<path d="M532.31 269.727V277H531.429V270.651H531.386L529.611 271.83V270.935L531.429 269.727H532.31Z" fill="black"/>
</svg>
